<svg width="30" height="30" viewBox="0 0 30 30" fill="none" xmlns="http://www.w3.org/2000/svg">
<path d="M13.0078 9.49219H22.793V11.9531H13.0078V9.49219Z" fill="#7D8696"/>
<path d="M7.20703 18.0469H16.9922V20.5078H7.20703V18.0469Z" fill="#7D8696"/>
<path d="M13.0078 9.49219H22.793V11.0156H13.0078V9.49219Z" fill="#4F5760"/>
<path d="M7.20703 18.0469H16.9922V19.5703H7.20703V18.0469Z" fill="#4F5760"/>
<path d="M27.7711 9.55078H27.0703V11.8945H27.7711C27.8631 11.8957 27.9545 11.8787 28.0399 11.8443C28.1253 11.81 28.2031 11.7591 28.2687 11.6945C28.3343 11.63 28.3864 11.553 28.4221 11.4682C28.4578 11.3833 28.4763 11.2922 28.4766 11.2002V10.2357C28.4762 10.1442 28.4575 10.0536 28.4216 9.96934C28.3858 9.88508 28.3335 9.80881 28.2678 9.74502C28.2021 9.68123 28.1243 9.6312 28.039 9.59784C27.9537 9.56449 27.8626 9.54849 27.7711 9.55078Z" fill="#6994FE"/>
<path d="M26.3678 7.08984H25.5656C25.3757 7.09172 25.1939 7.16766 25.0591 7.3015C24.9243 7.43534 24.847 7.6165 24.8438 7.80645V13.6863C24.8466 13.862 24.9173 14.0298 25.041 14.1545C25.1648 14.2792 25.332 14.3513 25.5076 14.3555H26.4252C26.7832 14.3555 27.0703 14.0443 27.0703 13.6863V7.80117C27.0712 7.61376 26.9978 7.43365 26.8661 7.30031C26.7344 7.16697 26.5552 7.09128 26.3678 7.08984Z" fill="#587CC6"/>
<path d="M24.1547 5.21484H23.352C22.9629 5.21484 22.6758 5.52773 22.6758 5.91738V15.518C22.6758 15.9076 22.9629 16.2305 23.352 16.2305H24.1547C24.2468 16.2294 24.3379 16.21 24.4225 16.1735C24.5071 16.137 24.5837 16.0841 24.6477 16.0179C24.7118 15.9516 24.7621 15.8733 24.7958 15.7875C24.8294 15.7017 24.8457 15.6101 24.8438 15.518V5.92969C24.8458 5.83742 24.8295 5.74568 24.7959 5.65973C24.7623 5.57378 24.712 5.49532 24.648 5.42888C24.5839 5.36244 24.5074 5.30932 24.4227 5.27259C24.3381 5.23585 24.247 5.21623 24.1547 5.21484Z" fill="#6994FE"/>
<path d="M21.9773 18.1055H21.2695V20.4492H21.9773C22.0685 20.4514 22.1592 20.4353 22.244 20.4018C22.3289 20.3683 22.4061 20.3181 22.4713 20.2543C22.5364 20.1904 22.588 20.1141 22.6231 20.03C22.6583 19.9458 22.6762 19.8555 22.6758 19.7643V18.7998C22.6763 18.7081 22.6586 18.6173 22.6236 18.5325C22.5886 18.4478 22.5372 18.3708 22.4721 18.3062C22.4071 18.2416 22.3299 18.1905 22.2449 18.1561C22.16 18.1216 22.069 18.1044 21.9773 18.1055Z" fill="#6994FE"/>
<path d="M20.574 15.6445H19.7719C19.5802 15.6484 19.3974 15.7261 19.2616 15.8615C19.1258 15.9968 19.0475 16.1794 19.043 16.3711V22.251C19.0478 22.4263 19.1204 22.593 19.2455 22.7159C19.3706 22.8388 19.5385 22.9084 19.7139 22.9102H20.6314C20.8034 22.9073 20.9673 22.8362 21.0869 22.7126C21.2065 22.589 21.2722 22.423 21.2695 22.251V16.3608C21.2722 16.1736 21.2004 15.9931 21.07 15.8587C20.9396 15.7244 20.7612 15.6474 20.574 15.6445Z" fill="#587CC6"/>
<path d="M12.4412 5.21484H11.6391C11.5478 5.21498 11.4575 5.2334 11.3735 5.26901C11.2894 5.30462 11.2134 5.35671 11.1498 5.42219C11.0862 5.48768 11.0364 5.56523 11.0033 5.65028C10.9702 5.73533 10.9545 5.82615 10.957 5.91738V15.518C10.957 15.9076 11.2494 16.2305 11.6391 16.2305H12.4412C12.8309 16.2305 13.125 15.9076 13.125 15.518V5.91738C13.1274 5.82605 13.1115 5.73517 13.0782 5.65009C13.0449 5.56501 12.9949 5.48746 12.9312 5.42199C12.8675 5.35652 12.7913 5.30446 12.7071 5.26889C12.623 5.23331 12.5326 5.21494 12.4412 5.21484Z" fill="#6994FE"/>
<path d="M10.2516 7.08984H9.43594C9.04632 7.08984 8.73047 7.40569 8.73047 7.79531V13.5914C8.73047 13.981 9.04632 14.2969 9.43594 14.2969H10.2516C10.6412 14.2969 10.957 13.981 10.957 13.5914V7.79531C10.957 7.40569 10.6412 7.08984 10.2516 7.08984Z" fill="#587CC6"/>
<path d="M8.02265 9.55078C7.93147 9.54861 7.84079 9.56474 7.75595 9.59822C7.67112 9.63171 7.59386 9.68186 7.52874 9.74572C7.46363 9.80958 7.41198 9.88585 7.37685 9.97001C7.34172 10.0542 7.32382 10.1445 7.32421 10.2357V11.2002C7.32369 11.2919 7.34142 11.3827 7.37639 11.4675C7.41135 11.5522 7.46284 11.6292 7.52786 11.6938C7.59288 11.7584 7.67011 11.8095 7.75506 11.8439C7.84002 11.8784 7.93098 11.8956 8.02265 11.8945H8.73046V9.55078H8.02265Z" fill="#6994FE"/>
<path d="M6.64805 13.7695H5.84532C5.75281 13.7714 5.66159 13.7915 5.57687 13.8287C5.49215 13.8659 5.4156 13.9194 5.35159 13.9862C5.28759 14.053 5.23739 14.1318 5.20387 14.218C5.17035 14.3043 5.15417 14.3963 5.15625 14.4888V24.0826C5.15447 24.1742 5.17097 24.2653 5.2048 24.3504C5.23863 24.4356 5.2891 24.5132 5.35327 24.5786C5.41743 24.644 5.49399 24.696 5.57848 24.7314C5.66297 24.7669 5.75368 24.7852 5.84532 24.7852H6.64805C7.03711 24.7852 7.32422 24.4723 7.32422 24.0826V14.482C7.32422 14.0924 7.03711 13.7695 6.64805 13.7695Z" fill="#6994FE"/>
<path d="M4.43437 15.6445H3.63222C3.44431 15.6471 3.26502 15.7238 3.13343 15.858C3.00183 15.9922 2.9286 16.1729 2.92968 16.3608V22.1936C2.9286 22.3815 3.00182 22.5623 3.13341 22.6965C3.26499 22.8307 3.44428 22.9075 3.63222 22.9102H4.43437C4.62433 22.9083 4.80606 22.8323 4.94088 22.6985C5.07571 22.5647 5.15297 22.3835 5.15625 22.1936V16.3711C5.15336 16.1801 5.07653 15.9977 4.9419 15.8622C4.80727 15.7267 4.62534 15.6487 4.43437 15.6445Z" fill="#587CC6"/>
<path d="M2.22891 18.1055C2.13687 18.1043 2.0455 18.1213 1.9601 18.1557C1.87469 18.19 1.79694 18.2409 1.73133 18.3055C1.66573 18.37 1.61358 18.447 1.57789 18.5318C1.54221 18.6167 1.5237 18.7078 1.52344 18.7998V19.7643C1.52385 19.8558 1.54252 19.9464 1.57838 20.0307C1.61423 20.1149 1.66654 20.1912 1.73224 20.255C1.79794 20.3188 1.87571 20.3688 1.961 20.4022C2.04628 20.4355 2.13736 20.4515 2.22891 20.4492H2.92969V18.1055H2.22891Z" fill="#6994FE"/>
<path d="M18.3609 13.7695H17.5588C17.1691 13.7695 16.875 14.0924 16.875 14.482V24.0826C16.8726 24.1739 16.8885 24.2648 16.9218 24.3499C16.9551 24.435 17.0051 24.5125 17.0688 24.578C17.1325 24.6435 17.2087 24.6955 17.2929 24.7311C17.377 24.7667 17.4674 24.7851 17.5588 24.7852H18.3609C18.4522 24.785 18.5425 24.7666 18.6266 24.731C18.7106 24.6954 18.7866 24.6433 18.8502 24.5778C18.9138 24.5123 18.9636 24.4348 18.9967 24.3497C19.0298 24.2647 19.0455 24.1738 19.043 24.0826V14.4894C19.043 14.0997 18.7506 13.7695 18.3609 13.7695Z" fill="#6994FE"/>
<path d="M27.7712 9.19922H27.4219V7.8065C27.4226 7.52541 27.3123 7.25541 27.1148 7.05532C26.9174 6.85524 26.6489 6.74128 26.3678 6.73828H25.5651C25.4387 6.74297 25.3139 6.76779 25.1953 6.81182V5.91727C25.1969 5.77953 25.1712 5.64284 25.1196 5.51511C25.0681 5.38738 24.9917 5.27115 24.8949 5.17313C24.7982 5.07511 24.6829 4.99726 24.5558 4.94407C24.4288 4.89089 24.2924 4.86343 24.1547 4.86328H23.3522C22.7695 4.86328 22.3242 5.33449 22.3242 5.91727V9.14062H13.4766V5.91727C13.4788 5.77982 13.4537 5.64331 13.4027 5.51566C13.3517 5.38801 13.2758 5.27177 13.1795 5.17369C13.0832 5.07562 12.9684 4.99768 12.8416 4.94439C12.7149 4.8911 12.5789 4.86353 12.4414 4.86328H11.6387C11.5014 4.8636 11.3654 4.89124 11.2389 4.94458C11.1123 4.99792 10.9976 5.0759 10.9014 5.17398C10.8053 5.27206 10.7296 5.38829 10.6788 5.51589C10.628 5.6435 10.6031 5.77994 10.6055 5.91727V6.81182C10.4844 6.76774 10.3571 6.74293 10.2283 6.73828H9.42586C9.14551 6.74156 8.8779 6.85583 8.68166 7.05606C8.48541 7.25629 8.37654 7.52615 8.3789 7.8065V9.19922H8.02242C7.88514 9.1972 7.74883 9.22253 7.62144 9.27373C7.49405 9.32493 7.37812 9.40097 7.28042 9.49742C7.18271 9.59387 7.10518 9.70881 7.05234 9.83553C6.9995 9.96225 6.97241 10.0982 6.97265 10.2355V11.2C6.97223 11.3378 6.99912 11.4743 7.05178 11.6016C7.10443 11.729 7.18179 11.8446 7.27941 11.9419C7.37702 12.0392 7.49294 12.1162 7.62047 12.1684C7.748 12.2206 7.88462 12.247 8.02242 12.2461H8.3789V13.6289C8.3789 14.2116 8.84308 14.707 9.42586 14.707H10.2283C10.3576 14.699 10.4848 14.6708 10.6055 14.6237V15.5182C10.6055 16.101 11.0562 16.582 11.6389 16.582H12.4417C12.5796 16.5806 12.7159 16.5519 12.8428 16.4976C12.9696 16.4433 13.0844 16.3644 13.1806 16.2656C13.2768 16.1667 13.3525 16.0497 13.4032 15.9215C13.454 15.7932 13.479 15.6561 13.4766 15.5182V12.3047H22.3242V15.5182C22.3242 16.101 22.7695 16.582 23.3522 16.582H24.1547C24.2929 16.5808 24.4296 16.5522 24.5568 16.498C24.684 16.4438 24.7992 16.3651 24.8959 16.2662C24.9926 16.1674 25.0688 16.0504 25.1202 15.9221C25.1716 15.7937 25.1971 15.6565 25.1953 15.5182V14.641C25.2964 14.6755 25.4014 14.6976 25.5078 14.707H26.4254C26.9761 14.707 27.4219 14.2375 27.4219 13.6865V12.2461H27.7712C27.9094 12.2472 28.0464 12.2209 28.1744 12.1688C28.3024 12.1168 28.4189 12.0399 28.5171 11.9427C28.6153 11.8455 28.6934 11.7298 28.7467 11.6024C28.8001 11.4749 28.8278 11.3382 28.8281 11.2V10.2355C28.8276 10.0978 28.7997 9.96165 28.7461 9.83482C28.6925 9.708 28.6143 9.59307 28.516 9.49669C28.4177 9.4003 28.3013 9.32438 28.1734 9.27332C28.0456 9.22226 27.9089 9.19707 27.7712 9.19922ZM8.3789 11.543H8.02242C7.97693 11.544 7.93169 11.5358 7.88942 11.519C7.84714 11.5022 7.80868 11.477 7.77634 11.445C7.74399 11.413 7.71842 11.3748 7.70114 11.3327C7.68387 11.2906 7.67524 11.2455 7.67578 11.2V10.2355C7.67544 10.1905 7.68428 10.1459 7.70176 10.1045C7.71923 10.063 7.74498 10.0255 7.77742 9.99435C7.80986 9.96317 7.84832 9.93893 7.89044 9.92311C7.93257 9.90729 7.97747 9.90022 8.02242 9.90234H8.3789V11.543ZM10.6055 13.5915C10.6055 13.638 10.5963 13.684 10.5786 13.7269C10.5608 13.7698 10.5347 13.8088 10.5019 13.8417C10.469 13.8745 10.43 13.9006 10.3871 13.9184C10.3442 13.9362 10.2982 13.9453 10.2517 13.9453H9.43576C9.3893 13.9453 9.3433 13.9362 9.30038 13.9184C9.25746 13.9006 9.21846 13.8745 9.18561 13.8417C9.15277 13.8088 9.12671 13.7698 9.10894 13.7269C9.09116 13.684 9.08202 13.638 9.08203 13.5915V7.7952C9.08202 7.74874 9.09116 7.70273 9.10894 7.65981C9.12671 7.61689 9.15277 7.57789 9.18561 7.54503C9.21846 7.51218 9.25746 7.48612 9.30038 7.46834C9.3433 7.45056 9.3893 7.44141 9.43576 7.44141H10.2517C10.2982 7.44141 10.3442 7.45056 10.3871 7.46834C10.43 7.48612 10.469 7.51218 10.5019 7.54503C10.5347 7.57789 10.5608 7.61689 10.5786 7.65981C10.5963 7.70273 10.6055 7.74874 10.6055 7.7952V13.5915ZM12.7734 15.5182C12.7734 15.7133 12.6365 15.8789 12.4414 15.8789H11.6387C11.4436 15.8789 11.3084 15.7065 11.3084 15.5114V5.91727C11.3059 5.87224 11.3125 5.82717 11.328 5.78481C11.3435 5.74245 11.3674 5.70368 11.3983 5.67086C11.4292 5.63803 11.4665 5.61185 11.5079 5.59389C11.5493 5.57593 11.5938 5.56658 11.6389 5.56641H12.4417C12.4868 5.56665 12.5314 5.57604 12.5728 5.594C12.6142 5.61196 12.6515 5.63813 12.6826 5.67092C12.7136 5.70371 12.7376 5.74245 12.7532 5.78479C12.7688 5.82713 12.7757 5.87219 12.7734 5.91727V15.5182ZM22.3242 11.6016H13.4766V9.84375H22.3242V11.6016ZM24.4922 15.5182C24.4941 15.5641 24.4868 15.61 24.4708 15.6531C24.4548 15.6962 24.4303 15.7356 24.3989 15.7692C24.3675 15.8028 24.3298 15.8297 24.2878 15.8486C24.2459 15.8674 24.2006 15.8777 24.1547 15.8789H23.3522C23.1572 15.8789 23.0273 15.7133 23.0273 15.5182V5.91727C23.0273 5.72221 23.1572 5.56641 23.3522 5.56641H24.1547C24.2001 5.56646 24.2451 5.57567 24.2869 5.5935C24.3287 5.61132 24.3665 5.63738 24.398 5.67013C24.4295 5.70288 24.4541 5.74164 24.4702 5.78411C24.4864 5.82657 24.4939 5.87186 24.4922 5.91727V15.5182ZM26.7187 13.6865C26.72 13.767 26.6903 13.8449 26.6356 13.904C26.581 13.9631 26.5057 13.9989 26.4254 14.0039H25.5078C25.4254 13.9997 25.3477 13.9647 25.2898 13.906C25.232 13.8472 25.1982 13.7689 25.1953 13.6865V7.8065C25.1986 7.70989 25.2388 7.61822 25.3077 7.55032C25.3765 7.48242 25.4687 7.44345 25.5653 7.44141H26.3681C26.4627 7.44427 26.5524 7.4841 26.6179 7.55236C26.6835 7.62062 26.7197 7.71186 26.7187 7.8065V13.6865ZM28.125 11.2C28.1247 11.2458 28.1153 11.2912 28.0973 11.3334C28.0793 11.3756 28.0531 11.4138 28.0201 11.4457C27.9872 11.4777 27.9482 11.5027 27.9055 11.5194C27.8627 11.5361 27.8171 11.5441 27.7712 11.543H27.4219V9.90234H27.7712C27.8165 9.9001 27.8618 9.90703 27.9044 9.92272C27.947 9.9384 27.986 9.96252 28.019 9.99363C28.052 10.0247 28.0785 10.0622 28.0967 10.1038C28.1149 10.1453 28.1245 10.1901 28.125 10.2355V11.2Z" fill="#284268"/>
<path d="M21.9776 17.7539H21.6211V16.3711C21.6211 15.7884 21.1569 15.293 20.5741 15.293H19.7717C19.6424 15.301 19.5152 15.3292 19.3945 15.3763V14.4818C19.3945 13.899 18.9438 13.418 18.3611 13.418H17.5583C17.4204 13.4194 17.2841 13.4481 17.1572 13.5024C17.0304 13.5567 16.9156 13.6356 16.8194 13.7344C16.7232 13.8333 16.6475 13.9503 16.5967 14.0785C16.5459 14.2068 16.521 14.3439 16.5234 14.4818V17.6953H7.67578V14.4818C7.67578 13.899 7.23047 13.418 6.64775 13.418H5.84531C5.70706 13.4192 5.57041 13.4478 5.44321 13.502C5.31601 13.5562 5.20076 13.6349 5.10408 13.7338C5.0074 13.8326 4.93118 13.9496 4.8798 14.0779C4.82843 14.2063 4.8029 14.3435 4.80469 14.4818V15.3763C4.68653 15.3292 4.56164 15.301 4.43467 15.293H3.63193C3.04939 15.293 2.57812 15.7883 2.57812 16.3711V17.7539H2.22879C2.0906 17.7528 1.95357 17.7791 1.82556 17.8312C1.69755 17.8832 1.58109 17.9601 1.48288 18.0573C1.38466 18.1545 1.30663 18.2702 1.25325 18.3976C1.19988 18.5251 1.17223 18.6618 1.17188 18.8V19.7645C1.17244 19.9022 1.20031 20.0384 1.25389 20.1652C1.30746 20.292 1.38566 20.4069 1.48396 20.5033C1.58226 20.5997 1.69872 20.6756 1.82657 20.7267C1.95442 20.7777 2.09113 20.8029 2.22879 20.8008H2.57812V22.1935C2.57737 22.4746 2.68773 22.7446 2.88516 22.9447C3.08259 23.1448 3.35109 23.2587 3.63217 23.2617H4.4349C4.56129 23.257 4.68612 23.2322 4.80469 23.1882V24.0827C4.80308 24.2205 4.82879 24.3572 4.88035 24.4849C4.93191 24.6126 5.00829 24.7289 5.10507 24.8269C5.20184 24.9249 5.3171 25.0027 5.44416 25.0559C5.57122 25.1091 5.70757 25.1366 5.84531 25.1367H6.64775C7.23047 25.1367 7.67578 24.6655 7.67578 24.0827V20.8594H16.5234V24.0827C16.5212 24.2202 16.5463 24.3567 16.5973 24.4843C16.6483 24.612 16.7242 24.7282 16.8205 24.8263C16.9168 24.9244 17.0316 25.0023 17.1583 25.0556C17.2851 25.1089 17.4211 25.1365 17.5586 25.1367H18.3613C18.4986 25.1364 18.6346 25.1088 18.7611 25.0554C18.8877 25.0021 19.0024 24.9241 19.0985 24.826C19.1947 24.7279 19.2704 24.6117 19.3212 24.4841C19.372 24.3565 19.3969 24.2201 19.3945 24.0827V23.2055C19.4984 23.2371 19.6057 23.256 19.7141 23.2617H20.6317C20.8968 23.2584 21.1497 23.1502 21.3352 22.9607C21.5206 22.7713 21.6234 22.5161 21.6211 22.251V20.8008H21.9776C22.1149 20.8028 22.2512 20.7775 22.3786 20.7263C22.5059 20.6751 22.6219 20.599 22.7196 20.5026C22.8173 20.4061 22.8948 20.2912 22.9477 20.1645C23.0005 20.0378 23.0276 19.9018 23.0273 19.7645V18.8C23.0278 18.6622 23.0009 18.5257 22.9482 18.3984C22.8956 18.271 22.8182 18.1554 22.7206 18.0581C22.623 17.9608 22.5071 17.8838 22.3795 17.8316C22.252 17.7794 22.1154 17.753 21.9776 17.7539ZM2.57812 20.0977H2.22879C2.18347 20.0999 2.13816 20.093 2.09558 20.0773C2.053 20.0616 2.01403 20.0375 1.98099 20.0064C1.94796 19.9753 1.92154 19.9378 1.90333 19.8962C1.88512 19.8547 1.87548 19.8099 1.875 19.7645V18.8C1.87527 18.7542 1.88468 18.7088 1.90269 18.6666C1.9207 18.6244 1.94694 18.5862 1.97988 18.5543C2.01282 18.5223 2.0518 18.4973 2.09454 18.4806C2.13728 18.4639 2.18292 18.4559 2.22879 18.457H2.57812V20.0977ZM4.80469 22.1462C4.80469 22.1927 4.79555 22.2387 4.77778 22.2816C4.76 22.3245 4.73395 22.3635 4.7011 22.3964C4.66825 22.4292 4.62926 22.4553 4.58634 22.4731C4.54342 22.4908 4.49741 22.5 4.45096 22.5H3.63498C3.58852 22.5 3.54252 22.4908 3.4996 22.4731C3.45668 22.4553 3.41768 22.4292 3.38483 22.3964C3.35199 22.3635 3.32593 22.3245 3.30816 22.2816C3.29039 22.2387 3.28124 22.1927 3.28125 22.1462V16.3499C3.28124 16.3034 3.29039 16.2574 3.30816 16.2145C3.32593 16.1716 3.35199 16.1326 3.38483 16.0997C3.41768 16.0669 3.45668 16.0408 3.4996 16.023C3.54252 16.0052 3.58852 15.9961 3.63498 15.9961H4.45096C4.49741 15.9961 4.54342 16.0052 4.58634 16.023C4.62926 16.0408 4.66825 16.0669 4.7011 16.0997C4.73395 16.1326 4.76 16.1716 4.77778 16.2145C4.79555 16.2574 4.80469 16.3034 4.80469 16.3499V22.1462ZM6.97266 24.0827C6.97266 24.2778 6.84281 24.4336 6.64775 24.4336H5.84531C5.79987 24.4335 5.75491 24.4243 5.7131 24.4065C5.6713 24.3887 5.63352 24.3626 5.60202 24.3299C5.57052 24.2971 5.54594 24.2584 5.52975 24.2159C5.51357 24.1734 5.5061 24.1281 5.50781 24.0827V14.4818C5.50594 14.4359 5.51322 14.39 5.52923 14.3469C5.54524 14.3038 5.56966 14.2644 5.60106 14.2308C5.63247 14.1972 5.67024 14.1703 5.71217 14.1514C5.7541 14.1326 5.79936 14.1223 5.84531 14.1211H6.64775C6.84281 14.1211 6.97266 14.2867 6.97266 14.4818V24.0827ZM16.5234 20.1562H7.67578V18.3984H16.5234V20.1562ZM18.6914 24.0827C18.6939 24.1277 18.6872 24.1728 18.6718 24.2151C18.6563 24.2575 18.6324 24.2962 18.6015 24.3291C18.5706 24.3619 18.5334 24.3881 18.492 24.406C18.4507 24.424 18.4061 24.4334 18.3611 24.4336H17.5583C17.5132 24.4334 17.4686 24.424 17.4272 24.406C17.3858 24.388 17.3484 24.3619 17.3174 24.3291C17.2864 24.2963 17.2624 24.2576 17.2468 24.2152C17.2312 24.1729 17.2243 24.1278 17.2266 24.0827V14.4818C17.2266 14.2867 17.3635 14.1211 17.5586 14.1211H18.3613C18.5563 14.1211 18.6916 14.2867 18.6916 14.4818L18.6914 24.0827ZM20.918 22.251C20.9205 22.3297 20.8919 22.4062 20.8382 22.4638C20.7846 22.5214 20.7104 22.5555 20.6317 22.5586H19.7141C19.6319 22.5568 19.5535 22.5242 19.4943 22.4672C19.4351 22.4102 19.3995 22.3331 19.3945 22.251V16.3711C19.3991 16.2727 19.4403 16.1796 19.5102 16.1102C19.58 16.0408 19.6733 16.0001 19.7717 15.9961H20.5741C20.7692 15.9961 20.918 16.176 20.918 16.3711V22.251ZM22.3242 19.7645C22.3246 19.8095 22.3157 19.8541 22.2982 19.8955C22.2808 19.937 22.255 19.9745 22.2226 20.0057C22.1901 20.0368 22.1517 20.0611 22.1096 20.0769C22.0674 20.0927 22.0225 20.0998 21.9776 20.0977H21.6211V18.457H21.9776C22.0231 18.456 22.0683 18.4642 22.1106 18.481C22.1529 18.4978 22.1913 18.523 22.2237 18.555C22.256 18.587 22.2816 18.6252 22.2989 18.6673C22.3161 18.7094 22.3248 18.7545 22.3242 18.8V19.7645Z" fill="#284268"/>
<path d="M8.34093 19.4531H8.71007C8.80331 19.4531 8.89274 19.4161 8.95867 19.3502C9.0246 19.2842 9.06164 19.1948 9.06164 19.1016C9.06164 19.0083 9.0246 18.9189 8.95867 18.853C8.89274 18.787 8.80331 18.75 8.71007 18.75H8.34093C8.24769 18.75 8.15827 18.787 8.09234 18.853C8.02641 18.9189 7.98937 19.0083 7.98937 19.1016C7.98937 19.1948 8.02641 19.2842 8.09234 19.3502C8.15827 19.4161 8.24769 19.4531 8.34093 19.4531Z" fill="#284268"/>
<path d="M9.82307 19.4531H13.6903C13.7835 19.4531 13.8729 19.4161 13.9388 19.3502C14.0048 19.2842 14.0418 19.1948 14.0418 19.1016C14.0418 19.0083 14.0048 18.9189 13.9388 18.853C13.8729 18.787 13.7835 18.75 13.6903 18.75H9.82307C9.72983 18.75 9.6404 18.787 9.57447 18.853C9.50854 18.9189 9.4715 19.0083 9.4715 19.1016C9.4715 19.1948 9.50854 19.2842 9.57447 19.3502C9.6404 19.4161 9.72983 19.4531 9.82307 19.4531Z" fill="#284268"/>
</svg>
