<svg width="30" height="30" viewBox="0 0 30 30" fill="none" xmlns="http://www.w3.org/2000/svg">
<path d="M28.3236 27.491H20.2875V22.1619H29.0625V26.7527C29.0625 26.8497 29.0434 26.9458 29.0063 27.0354C28.9691 27.125 28.9147 27.2064 28.8461 27.275C28.7774 27.3435 28.696 27.3979 28.6063 27.435C28.5167 27.472 28.4206 27.4911 28.3236 27.491Z" fill="#D0E6EA"/>
<path d="M0.9375 12.6932V26.0208C1.02668 27.953 2.90936 27.7254 4.3043 27.7055H16.9061V12.6932H0.9375Z" fill="#FF8D93"/>
<path d="M14.2447 1.99044V4.50352C14.2515 4.84547 13.7575 4.73479 13.5504 4.75137H3.84667C3.78097 4.75125 3.718 4.7251 3.67155 4.67864C3.62509 4.63219 3.59894 4.56922 3.59882 4.50352V1.99044C3.59894 1.92474 3.62509 1.86177 3.67155 1.81532C3.718 1.76886 3.78097 1.74271 3.84667 1.74258H13.9969C14.0626 1.7426 14.1256 1.76872 14.1721 1.8152C14.2186 1.86167 14.2447 1.92471 14.2447 1.99044Z" fill="#6D7486"/>
<path d="M4.29315 4.75137H6.77636C6.71066 4.75125 6.64769 4.7251 6.60123 4.67864C6.55478 4.63219 6.52863 4.56922 6.5285 4.50352V1.99044C6.52863 1.92474 6.55478 1.86177 6.60123 1.81532C6.64769 1.76886 6.71066 1.74271 6.77636 1.74258H3.84667C3.78097 1.74271 3.718 1.76886 3.67155 1.81532C3.62509 1.86177 3.59894 1.92474 3.59882 1.99044V4.50352C3.59894 4.56922 3.62509 4.63219 3.67155 4.67864C3.718 4.7251 3.78097 4.75125 3.84667 4.75137H4.29315Z" fill="#919AAF"/>
<path d="M0.937494 12.6932C0.650385 8.30133 1.82314 7.9588 4.29316 4.75137H13.5504C14.6777 6.29919 17.0926 8.4961 16.906 10.6078V12.6932" fill="#BFD3F7"/>
<path d="M7.22285 4.75137H4.29316C1.82314 7.95856 0.650385 8.30133 0.937494 12.6932H3.86718C3.58007 8.30133 4.75283 7.95856 7.22285 4.75137Z" fill="#E6F0FF"/>
<path d="M3.86719 26.0208V12.6932H0.9375V26.0208C1.02668 27.953 2.90936 27.7254 4.3043 27.7055H5.745C4.77398 27.6332 3.92631 27.3019 3.86719 26.0208Z" fill="#E5707C"/>
<path d="M29.0625 17.5682V22.159H20.2875V16.8299H28.3236C28.4206 16.8298 28.5167 16.8488 28.6063 16.8859C28.696 16.923 28.7774 16.9773 28.8461 17.0459C28.9147 17.1145 28.9691 17.1959 29.0063 17.2855C29.0434 17.3751 29.0625 17.4712 29.0625 17.5682Z" fill="#E9FBFF"/>
<path d="M4.3043 27.7055V25.9852H20.2875C20.2599 26.3729 20.3074 27.6592 20.2875 28.023C20.2875 28.0852 20.2628 28.1448 20.2189 28.1888C20.1749 28.2327 20.1153 28.2574 20.0531 28.2574H4.53868C4.25426 28.2628 4.30307 27.893 4.3043 27.7055Z" fill="#1F7FBF"/>
<path d="M20.2875 23.8424V25.9852H4.30429V23.8424H20.2875Z" fill="#49BDFF"/>
<path d="M20.0531 16.1391C17.9643 16.1391 6.87744 16.1391 4.53867 16.1391C4.47653 16.1391 4.41696 16.1639 4.37302 16.2078C4.32909 16.2517 4.30437 16.3113 4.30429 16.3734V23.8424H20.2875V16.3734C20.2874 16.3113 20.2627 16.2517 20.2188 16.2078C20.1748 16.1639 20.1153 16.1391 20.0531 16.1391Z" fill="#1F7FBF"/>
<path d="M15.8033 9.50214C16.6904 10.566 15.7162 11.3409 14.9443 12.0293L13.2275 10.2018C13.9549 9.47595 14.8092 8.5507 15.8033 9.50214Z" fill="#63C18E"/>
<path d="M13.2275 10.2018L14.9443 12.0293L14.2371 12.6932H12.3357C11.5023 11.6543 12.4799 10.8641 13.2275 10.2018Z" fill="#8CEAB5"/>
<path d="M11.7937 12.1963C11.8153 12.3625 11.8038 12.5314 11.7598 12.6932H9.48223L9.29297 11.2617C10.3072 11.0963 11.5412 10.8433 11.7937 12.1963Z" fill="#63C18E"/>
<path d="M10.415 9.72539C10.5299 11.0746 9.19997 11.0875 8.23242 11.2014L7.90488 8.71582C8.95851 8.55129 10.258 8.25211 10.415 9.72539Z" fill="#8CEAB5"/>
<path d="M9.29296 11.2617L9.48222 12.6932H7.11035C7.1022 11.4122 8.32769 11.3662 9.29296 11.2617Z" fill="#8CEAB5"/>
<path d="M7.90487 8.71582L8.23241 11.2014C7.18018 11.3658 5.878 11.6648 5.72225 10.1917C5.60671 8.84326 6.93749 8.82932 7.90487 8.71582Z" fill="#63C18E"/>
<path d="M6.63164 12.6932H4.18359L4.86328 11.1223C5.58076 11.4353 6.66211 11.7241 6.63164 12.6932Z" fill="#8CEAB5"/>
<path d="M4.86328 11.1223L4.18359 12.6932H2.43925C1.68175 11.9596 2.30015 10.5307 3.35331 10.5815C3.71249 10.5469 4.53005 11.0025 4.86328 11.1223Z" fill="#63C18E"/>
<path d="M26.6695 18.143C28.4228 18.1731 28.4221 20.7802 26.6695 20.8096V18.143Z" fill="#EFC597"/>
<path d="M26.6695 23.5078C28.4138 23.5158 28.4133 26.1667 26.6695 26.1744V23.5078Z" fill="#FFD8B7"/>
<path d="M26.6695 23.5078V26.1744C24.9166 26.144 24.9183 23.5376 26.6695 23.5078Z" fill="#EFC597"/>
<path d="M26.6695 18.143V20.8096C24.9166 20.7796 24.9183 18.1727 26.6695 18.143Z" fill="#FFD8B7"/>
<path d="M22.5357 18.143C24.289 18.1731 24.2883 20.7802 22.5357 20.8096V18.143Z" fill="#EFC597"/>
<path d="M22.5357 23.5078C24.28 23.5158 24.2795 26.1667 22.5357 26.1744V23.5078Z" fill="#FFD8B7"/>
<path d="M22.5357 23.5078V26.1744C20.7916 26.1664 20.7932 23.5153 22.5357 23.5078Z" fill="#EFC597"/>
<path d="M22.5357 18.143V20.8096C20.7916 20.802 20.7932 18.1504 22.5357 18.143Z" fill="#FFD8B7"/>
<path d="M16.2874 22.3762C17.6798 22.3762 18.8085 21.2475 18.8085 19.8552C18.8085 18.4629 17.6798 17.3341 16.2874 17.3341C14.8951 17.3341 13.7664 18.4629 13.7664 19.8552C13.7664 21.2475 14.8951 22.3762 16.2874 22.3762Z" fill="#B0E7FF"/>
<path d="M2.34915 19.7062C2.27145 19.7062 2.19693 19.7371 2.14199 19.792C2.08705 19.8469 2.05618 19.9215 2.05618 19.9992V25.4024C2.05618 25.4801 2.08705 25.5547 2.14199 25.6096C2.19693 25.6645 2.27145 25.6954 2.34915 25.6954C2.42685 25.6954 2.50137 25.6645 2.55631 25.6096C2.61125 25.5547 2.64212 25.4801 2.64212 25.4024V19.9992C2.64212 19.9215 2.61125 19.8469 2.55631 19.792C2.50137 19.7371 2.42685 19.7062 2.34915 19.7062Z" fill="#284268"/>
<path d="M2.34915 17.7255C2.27145 17.7255 2.19693 17.7564 2.14199 17.8113C2.08705 17.8663 2.05618 17.9408 2.05618 18.0185V18.7004C2.05618 18.7781 2.08705 18.8526 2.14199 18.9076C2.19693 18.9625 2.27145 18.9934 2.34915 18.9934C2.42685 18.9934 2.50137 18.9625 2.55631 18.9076C2.61125 18.8526 2.64212 18.7781 2.64212 18.7004V18.0185C2.64212 17.9408 2.61125 17.8663 2.55631 17.8113C2.50137 17.7564 2.42685 17.7255 2.34915 17.7255Z" fill="#284268"/>
<path d="M28.3239 16.5368H20.5803V16.3737C20.5801 16.2339 20.5245 16.0999 20.4257 16.001C20.3268 15.9021 20.1928 15.8465 20.0529 15.8464H17.1994V10.6081C17.1979 9.47474 16.813 8.37522 16.1074 7.48828L14.1425 5.02377C14.2561 4.99192 14.3562 4.92385 14.4275 4.82991C14.4989 4.73597 14.5376 4.6213 14.5378 4.50334V1.9906C14.5377 1.8472 14.4806 1.70971 14.3792 1.60831C14.2778 1.50691 14.1403 1.44988 13.9969 1.44972H3.84686C3.70345 1.44988 3.56597 1.50691 3.46457 1.60831C3.36317 1.70971 3.30613 1.8472 3.30598 1.9906V4.50334C3.30618 4.62131 3.34491 4.73598 3.41627 4.82992C3.48763 4.92386 3.58772 4.99193 3.70131 5.02377L1.73613 7.48828C1.03073 8.3752 0.646019 9.47463 0.644531 10.6079V26.0207C0.645121 26.5451 0.853682 27.0478 1.22446 27.4186C1.59524 27.7893 2.09795 27.9979 2.6223 27.9985H4.01098V28.0229C4.01113 28.1627 4.06674 28.2968 4.1656 28.3956C4.26447 28.4945 4.39851 28.5501 4.53832 28.5503H20.0529C20.1928 28.5501 20.3268 28.4945 20.4257 28.3956C20.5245 28.2968 20.5801 28.1627 20.5803 28.0229V27.781H28.3239C28.5974 27.7807 28.8596 27.6719 29.053 27.4785C29.2464 27.2851 29.3552 27.0228 29.3555 26.7493V17.5684C29.3552 17.2949 29.2464 17.0327 29.053 16.8393C28.8596 16.6459 28.5974 16.5371 28.3239 16.5368ZM3.89191 2.03566H13.9519V4.45834H3.89191V2.03566ZM1.23047 10.6079C1.23176 9.60729 1.57141 8.63655 2.19422 7.85343L4.43438 5.04427H13.4095L15.6496 7.85343C16.2724 8.63655 16.6121 9.60728 16.6134 10.6079V12.4003H14.9771L15.9486 11.4876C16.2384 11.2046 16.4056 10.8192 16.4144 10.4142C16.4231 10.0093 16.2726 9.61703 15.9953 9.3218C15.718 9.02657 15.3359 8.85191 14.9312 8.83533C14.5264 8.81875 14.1314 8.96158 13.8308 9.23314L12.2227 10.7438C12.0197 10.9336 11.8716 11.1746 11.794 11.4414C11.6323 11.2228 11.4158 11.0506 11.1664 10.9422C10.917 10.8339 10.6434 10.7931 10.3732 10.8241C10.629 10.519 10.7513 10.037 10.6955 9.61207C10.5895 8.80798 9.83912 8.1648 9.03498 8.27109L6.69762 8.57935C5.89354 8.68541 5.33549 9.50086 5.44154 10.3049C5.48561 10.6394 5.64943 11.0167 5.88938 11.2469L3.9668 10.4154C3.68642 10.2941 3.37637 10.2585 3.0758 10.3132C2.77522 10.3679 2.49759 10.5105 2.27794 10.7228C2.05829 10.9352 1.90647 11.2078 1.84164 11.5064C1.77681 11.8049 1.80187 12.116 1.91367 12.4003H1.23047V10.6079ZM13.6416 10.2149L14.232 9.66023C14.4177 9.48579 14.6651 9.39226 14.9198 9.40022C15.1744 9.40818 15.4155 9.51698 15.59 9.70268C15.7644 9.88838 15.8579 10.1358 15.85 10.3904C15.842 10.6451 15.7332 10.8862 15.5475 11.0606L14.957 11.6153L13.6416 10.2149ZM14.53 12.0164L14.1211 12.4003H12.4805C12.3548 12.2117 12.3001 11.9845 12.3263 11.7593C12.3525 11.5342 12.4579 11.3256 12.6236 11.1709L13.2141 10.6161L14.53 12.0164ZM7.02539 11.065C6.91017 11.0806 6.79301 11.0731 6.6807 11.043C6.5684 11.013 6.46317 10.9609 6.37113 10.8899C6.18363 10.746 6.05332 10.4627 6.02244 10.2284C5.95863 9.74455 6.29045 9.22406 6.7742 9.16025L7.65246 9.04441L7.90365 10.9492L7.02539 11.065ZM7.19314 11.6339C7.03309 11.8183 6.91933 12.0382 6.86133 12.2754C6.78261 12.0088 6.63376 11.7683 6.43031 11.5789C6.58354 11.632 6.74457 11.6591 6.90674 11.659C6.97209 11.659 7.03736 11.6547 7.10215 11.6461L7.19314 11.6339ZM6.28652 12.4003H4.62973L5.01586 11.5075L5.75977 11.8291C5.88246 11.8824 5.99267 11.9608 6.08337 12.0592C6.17407 12.1575 6.24326 12.2737 6.28652 12.4003ZM8.2377 11.6961L9.04096 11.5903L9.14777 12.4003H7.43479C7.48332 12.2163 7.58567 12.051 7.72874 11.9256C7.8718 11.8001 8.04906 11.7202 8.23781 11.6961H8.2377ZM8.48443 10.8726L8.23324 8.96783L9.11145 8.85199C9.59596 8.78847 10.0507 9.2049 10.1145 9.68871C10.1782 10.1725 9.84645 10.693 9.36269 10.7568L8.48443 10.8726ZM10.4251 11.4077C10.5641 11.3888 10.7056 11.4007 10.8395 11.4425C10.9734 11.4844 11.0964 11.5552 11.1999 11.6499C11.3034 11.7446 11.3848 11.8609 11.4384 11.9906C11.4919 12.1203 11.5163 12.2602 11.5097 12.4003H9.73887L9.62168 11.5136L10.4251 11.4077ZM4.47779 11.2748L3.991 12.4003H2.57684C2.45266 12.2301 2.38793 12.0237 2.39262 11.813C2.39731 11.6023 2.47116 11.3991 2.60278 11.2345C2.7344 11.0699 2.9165 10.9532 3.12099 10.9024C3.32549 10.8515 3.54104 10.8693 3.73441 10.953L4.47779 11.2748ZM4.01098 16.3737V27.4128H2.6223C2.25325 27.4124 1.89944 27.2656 1.63851 27.0046C1.37757 26.7436 1.23083 26.3898 1.23047 26.0207V12.9862H16.6134V15.8464H4.53855C4.39874 15.8465 4.2647 15.9021 4.16584 16.001C4.06698 16.0999 4.01137 16.2339 4.01121 16.3737H4.01098ZM19.9944 27.9643H4.59715V26.2781H19.9944V27.9643ZM19.9944 25.6922H4.59715V24.1353H19.9944V25.6922ZM19.9944 23.5494H4.59715V16.4323H19.9944V23.5494ZM28.7695 26.7493C28.7694 26.8675 28.7224 26.9808 28.6389 27.0643C28.5553 27.1479 28.442 27.1949 28.3239 27.1951H20.5803V22.4519H28.7695V26.7493ZM28.7695 21.866H20.5803V17.1227H28.3239C28.442 17.1229 28.5553 17.1699 28.6388 17.2534C28.7224 17.337 28.7694 17.4502 28.7695 17.5684V21.866Z" fill="#284268"/>
<path d="M26.6698 17.8503C26.3481 17.8503 26.0337 17.9456 25.7662 18.1243C25.4988 18.303 25.2903 18.557 25.1673 18.8542C25.0442 19.1513 25.0119 19.4783 25.0747 19.7938C25.1374 20.1093 25.2923 20.399 25.5197 20.6265C25.7472 20.8539 26.037 21.0088 26.3524 21.0716C26.6679 21.1343 26.9949 21.1021 27.292 20.979C27.5892 20.8559 27.8432 20.6475 28.0219 20.3801C28.2006 20.1126 28.296 19.7982 28.296 19.4766C28.2955 19.0454 28.124 18.632 27.8191 18.3272C27.5143 18.0223 27.1009 17.8508 26.6698 17.8503ZM26.3768 20.4741C26.1611 20.411 25.9717 20.2796 25.837 20.0998C25.7022 19.9199 25.6294 19.7013 25.6294 19.4765C25.6294 19.2518 25.7022 19.0331 25.837 18.8533C25.9717 18.6734 26.1611 18.5421 26.3768 18.4789V20.4741ZM26.9627 20.4741V18.4789C27.1784 18.5421 27.3678 18.6735 27.5025 18.8533C27.6372 19.0332 27.71 19.2518 27.71 19.4765C27.71 19.7012 27.6372 19.9199 27.5025 20.0997C27.3678 20.2796 27.1784 20.4109 26.9627 20.4741Z" fill="#284268"/>
<path d="M22.5357 17.8503C22.2141 17.8503 21.8997 17.9457 21.6322 18.1244C21.3648 18.3031 21.1564 18.557 21.0333 18.8542C20.9102 19.1514 20.878 19.4784 20.9407 19.7938C21.0035 20.1093 21.1584 20.3991 21.3858 20.6265C21.6132 20.8539 21.903 21.0088 22.2185 21.0716C22.5339 21.1343 22.8609 21.1021 23.1581 20.979C23.4552 20.8559 23.7092 20.6475 23.8879 20.3801C24.0666 20.1126 24.162 19.7982 24.162 19.4766C24.1615 19.0454 23.99 18.632 23.6852 18.3271C23.3803 18.0223 22.9669 17.8508 22.5357 17.8503ZM22.2428 20.4741C22.0271 20.411 21.8377 20.2796 21.7029 20.0998C21.5682 19.9199 21.4953 19.7013 21.4953 19.4765C21.4953 19.2518 21.5682 19.0331 21.7029 18.8533C21.8377 18.6734 22.0271 18.5421 22.2428 18.4789V20.4741ZM22.8287 20.4741V18.4789C23.0444 18.5421 23.2338 18.6734 23.3685 18.8533C23.5033 19.0331 23.5761 19.2518 23.5761 19.4765C23.5761 19.7013 23.5033 19.9199 23.3685 20.0998C23.2338 20.2796 23.0444 20.411 22.8287 20.4741Z" fill="#284268"/>
<path d="M26.6698 26.4675C26.9914 26.4675 27.3058 26.3721 27.5733 26.1934C27.8407 26.0147 28.0491 25.7607 28.1722 25.4636C28.2953 25.1664 28.3275 24.8394 28.2648 24.524C28.202 24.2085 28.0471 23.9187 27.8197 23.6913C27.5923 23.4638 27.3025 23.3089 26.987 23.2462C26.6716 23.1834 26.3446 23.2157 26.0474 23.3387C25.7502 23.4618 25.4963 23.6703 25.3176 23.9377C25.1389 24.2052 25.0435 24.5196 25.0435 24.8412C25.044 25.2724 25.2155 25.6858 25.5203 25.9906C25.8252 26.2955 26.2386 26.467 26.6698 26.4675ZM26.9627 23.8436C27.1784 23.9068 27.3678 24.0381 27.5025 24.218C27.6373 24.3978 27.7101 24.6165 27.7101 24.8412C27.7101 25.0659 27.6373 25.2846 27.5025 25.4645C27.3678 25.6443 27.1784 25.7757 26.9627 25.8388V23.8436ZM26.3768 23.8436V25.8388C26.1611 25.7757 25.9717 25.6443 25.837 25.4645C25.7022 25.2846 25.6294 25.0659 25.6294 24.8412C25.6294 24.6165 25.7022 24.3978 25.837 24.218C25.9717 24.0381 26.1611 23.9068 26.3768 23.8436Z" fill="#284268"/>
<path d="M22.5357 26.4675C22.8574 26.4675 23.1718 26.3721 23.4392 26.1934C23.7067 26.0147 23.9151 25.7607 24.0382 25.4636C24.1613 25.1664 24.1935 24.8394 24.1308 24.524C24.068 24.2085 23.9131 23.9187 23.6857 23.6913C23.4582 23.4638 23.1685 23.3089 22.853 23.2462C22.5375 23.1834 22.2106 23.2157 21.9134 23.3387C21.6162 23.4618 21.3622 23.6703 21.1835 23.9377C21.0048 24.2052 20.9095 24.5196 20.9095 24.8412C20.91 25.2724 21.0814 25.6858 21.3863 25.9906C21.6912 26.2955 22.1046 26.467 22.5357 26.4675ZM22.8287 23.8436C23.0444 23.9068 23.2338 24.0381 23.3685 24.218C23.5033 24.3978 23.5761 24.6165 23.5761 24.8412C23.5761 25.0659 23.5033 25.2846 23.3685 25.4645C23.2338 25.6443 23.0444 25.7757 22.8287 25.8388V23.8436ZM22.2428 23.8436V25.8388C22.0271 25.7757 21.8377 25.6443 21.703 25.4645C21.5682 25.2846 21.4954 25.0659 21.4954 24.8412C21.4954 24.6165 21.5682 24.3978 21.703 24.218C21.8377 24.0381 22.0271 23.9068 22.2428 23.8436Z" fill="#284268"/>
<path d="M16.2874 22.6679C16.9381 22.6674 17.5685 22.4414 18.0711 22.0283C18.5738 21.6152 18.9177 21.0405 19.0443 20.4023C19.1708 19.7641 19.0721 19.1017 18.7651 18.5281C18.458 17.9544 17.9615 17.505 17.3603 17.2563C16.759 17.0077 16.0901 16.9752 15.4676 17.1644C14.845 17.3536 14.3074 17.7528 13.9462 18.294C13.5849 18.8352 13.4225 19.4849 13.4866 20.1324C13.5507 20.7798 13.8373 21.3851 14.2976 21.845C14.5587 22.1064 14.8689 22.3137 15.2104 22.4549C15.5519 22.5961 15.9179 22.6685 16.2874 22.6679ZM14.7119 18.2797C15.0235 17.9681 15.4205 17.7559 15.8527 17.6699C16.2849 17.584 16.7329 17.6281 17.14 17.7967C17.5472 17.9654 17.8952 18.251 18.14 18.6174C18.3848 18.9838 18.5155 19.4145 18.5155 19.8552C18.5155 20.2959 18.3848 20.7267 18.14 21.0931C17.8952 21.4595 17.5472 21.7451 17.14 21.9137C16.7329 22.0823 16.2849 22.1265 15.8527 22.0405C15.4205 21.9545 15.0235 21.7423 14.7119 21.4307C14.5042 21.2243 14.3394 20.9788 14.2269 20.7084C14.1144 20.438 14.0565 20.1481 14.0565 19.8552C14.0565 19.5624 14.1144 19.2724 14.2269 19.002C14.3394 18.7316 14.5042 18.4862 14.7119 18.2797Z" fill="#284268"/>
<path d="M6.15851 19.4144H10.0168C10.0945 19.4144 10.1691 19.3836 10.224 19.3286C10.279 19.2737 10.3098 19.1992 10.3098 19.1215C10.3098 19.0438 10.279 18.9693 10.224 18.9143C10.1691 18.8594 10.0945 18.8285 10.0168 18.8285H6.15851C6.08081 18.8285 6.00629 18.8594 5.95135 18.9143C5.89641 18.9693 5.86554 19.0438 5.86554 19.1215C5.86554 19.1992 5.89641 19.2737 5.95135 19.3286C6.00629 19.3836 6.08081 19.4144 6.15851 19.4144Z" fill="#284268"/>
<path d="M6.15851 21.1875H12.0395C12.1172 21.1875 12.1917 21.1566 12.2467 21.1017C12.3016 21.0467 12.3325 20.9722 12.3325 20.8945C12.3325 20.8168 12.3016 20.7423 12.2467 20.6874C12.1917 20.6324 12.1172 20.6016 12.0395 20.6016H6.15851C6.08081 20.6016 6.00629 20.6324 5.95135 20.6874C5.89641 20.7423 5.86554 20.8168 5.86554 20.8945C5.86554 20.9722 5.89641 21.0467 5.95135 21.1017C6.00629 21.1566 6.08081 21.1875 6.15851 21.1875Z" fill="#284268"/>
</svg>
