<svg width="30" height="30" viewBox="0 0 30 30" fill="none" xmlns="http://www.w3.org/2000/svg">
<path d="M9.88126 27.2121H19.7502V29.0625H9.88126V27.2121Z" fill="#F5CB52"/>
<path d="M9.88126 27.2121H11.6391V29.0625H9.88126V27.2121Z" fill="#C19B3D"/>
<path d="M26.2916 22.2973C26.1738 22.3794 26.0338 22.4234 25.8902 22.4234C25.7467 22.4234 25.6066 22.3794 25.4889 22.2973L23.9396 21.2203L22.807 21.7008L21.9492 22.2973C21.8314 22.3791 21.6913 22.4229 21.5478 22.4229C21.4044 22.4229 21.2643 22.3791 21.1465 22.2973L19.3769 21.0662L17.6074 22.2973C17.4895 22.3791 17.3493 22.4229 17.2057 22.4229C17.0622 22.4229 16.922 22.3791 16.8041 22.2973L15.0351 21.0662L13.2656 22.2973C13.1478 22.3791 13.0077 22.4229 12.8642 22.4229C12.7208 22.4229 12.5807 22.3791 12.4629 22.2973L10.6933 21.0662L8.9244 22.2973C8.80644 22.3791 8.66631 22.4229 8.52274 22.4229C8.37918 22.4229 8.23904 22.3791 8.12108 22.2973L6.35155 21.0662L4.58261 22.2973C4.46465 22.3791 4.32451 22.4229 4.18095 22.4229C4.03738 22.4229 3.89724 22.3791 3.77928 22.2973L2.92206 21.7008C3.23655 23.2558 4.07923 24.6541 5.30716 25.6586C6.5351 26.6631 8.0727 27.212 9.65917 27.2121H19.9723C21.4946 27.212 22.9739 26.7066 24.178 25.7751C25.3822 24.8436 26.243 23.5387 26.6256 22.0652L26.2916 22.2973Z" fill="#6195F1"/>
<path d="M2.78729 16.9816V19.7824L4.18124 20.7516L5.95018 19.5211C6.06803 19.439 6.20821 19.395 6.35184 19.395C6.49547 19.395 6.63565 19.439 6.7535 19.5211L8.52245 20.7516L10.292 19.5211C10.4098 19.439 10.55 19.395 10.6936 19.395C10.8373 19.395 10.9775 19.439 11.0953 19.5211L12.8642 20.7516L14.6332 19.5211C14.751 19.439 14.8912 19.395 15.0349 19.395C15.1785 19.395 15.3187 19.439 15.4365 19.5211L17.206 20.7516L18.975 19.5211C19.0928 19.439 19.233 19.395 19.3766 19.395C19.5203 19.395 19.6605 19.439 19.7783 19.5211L21.5478 20.7516L22.807 19.8756L23.9396 19.3951L25.4889 20.4727C25.6067 20.5545 25.7467 20.5983 25.8902 20.5983C26.0337 20.5983 26.1737 20.5545 26.2916 20.4727L26.8435 20.0883V16.9816H2.78729Z" fill="#6195F1"/>
<path d="M19.7865 4.57618V4.57559L4.33358 8.06485C4.25487 8.08253 4.18544 8.12863 4.13859 8.19432C4.09175 8.26001 4.07078 8.34067 4.07971 8.42085C4.08864 8.50103 4.12683 8.57511 4.18697 8.62889C4.24711 8.68267 4.32498 8.71237 4.40565 8.71231C4.42592 8.71239 4.44614 8.71043 4.46601 8.70645L20.0361 5.78204L19.7865 4.57618Z" fill="#EA846C"/>
<path d="M27.2057 4.09747C27.2144 4.14012 27.2146 4.1841 27.2062 4.22683C27.1978 4.26955 27.181 4.31018 27.1567 4.34634C27.1324 4.3825 27.1012 4.41346 27.0649 4.43743C27.0285 4.4614 26.9877 4.47789 26.9449 4.48594L24.3041 4.98165L24.0223 3.61934L26.6438 3.02754C26.6862 3.01795 26.7301 3.01691 26.7729 3.02449C26.8158 3.03207 26.8566 3.04811 26.8932 3.07168C26.9298 3.09525 26.9612 3.12587 26.9858 3.16176C27.0104 3.19764 27.0276 3.23807 27.0363 3.28067L27.2057 4.09747Z" fill="#EA846C"/>
<path d="M26.8435 20.0883V20.3408C26.844 20.9225 26.7708 21.5019 26.6256 22.0652L26.2916 22.2973C26.1738 22.3794 26.0338 22.4234 25.8902 22.4234C25.7467 22.4234 25.6066 22.3794 25.4889 22.2973L23.9396 21.2203V19.3951L25.4889 20.4726C25.6067 20.5545 25.7467 20.5983 25.8902 20.5983C26.0337 20.5983 26.1737 20.5545 26.2916 20.4726L26.8435 20.0883Z" fill="#F9436E"/>
<path d="M26.7814 1.99512C26.792 2.03734 26.794 2.08124 26.7874 2.12426C26.7808 2.16727 26.7657 2.20853 26.7429 2.24563C26.7202 2.28273 26.6902 2.31492 26.6549 2.34032C26.6196 2.36572 26.5795 2.38382 26.5371 2.39356L23.9186 2.99766L23.5811 1.64766L26.1762 0.948637C26.2182 0.937383 26.2621 0.934611 26.3052 0.940483C26.3484 0.946355 26.3899 0.960754 26.4274 0.98284C26.465 1.00493 26.4977 1.03426 26.5238 1.06913C26.5499 1.104 26.5687 1.14371 26.5793 1.18594L26.7814 1.99512Z" fill="#EA846C"/>
<path d="M26.41 15.0627C26.5904 15.6773 26.5441 16.326 26.2213 16.9816H25.4912L24.4922 15.8473C24.7723 15.6685 24.9598 15.3873 25.0236 14.9889H25.0242L26.41 15.0627Z" fill="#FFC7D7"/>
<path d="M26.41 15.0627L25.0242 14.9889H25.0236C25.0577 14.7541 25.0571 14.5156 25.0219 14.2811C25.0089 14.1903 25.0085 14.0983 25.0207 14.0074H25.0213C25.0699 13.6658 25.3207 13.5 25.6436 13.7736C25.7078 13.8293 25.7665 13.8912 25.8188 13.9582C26.085 14.2849 26.2857 14.66 26.41 15.0627Z" fill="#F9436E"/>
<path d="M24.4922 15.8473L25.4912 16.9816H24.0334C23.989 16.6729 23.9178 16.3687 23.8207 16.0723H23.8213C24.0588 16.0477 24.2879 15.9708 24.4922 15.8473Z" fill="#F9436E"/>
<path d="M25.6436 13.7736C25.3207 13.5 25.0699 13.6658 25.0213 14.0074H25.0207L23.4305 12.9656C23.8521 12.8499 24.3019 12.8991 24.6885 13.1033L24.0633 12.2842C24.8818 12.3686 25.4414 12.8186 25.6436 13.7736Z" fill="#FFC7D7"/>
<path d="M24.0223 3.61934L24.3041 4.98164L23.2371 5.18145L22.9635 3.8584L24.0223 3.61934Z" fill="#E94253"/>
<path d="M23.8207 16.0723C23.9178 16.3687 23.989 16.6729 24.0334 16.9816H22.6283C22.4771 16.2212 22.1115 15.5199 21.5746 14.9605C21.0377 14.4011 20.352 14.007 19.5984 13.8246L19.6289 13.6939L20.0631 12.5139C20.9354 12.7489 21.7355 13.1972 22.3914 13.8184C23.0474 14.4395 23.5385 15.2141 23.8207 16.0723Z" fill="#F5CB52"/>
<path d="M22.807 16.9816V22.5768C22.807 22.727 22.8667 22.871 22.9729 22.9772C23.0791 23.0834 23.2232 23.1431 23.3733 23.1431C23.5235 23.1431 23.6676 23.0834 23.7738 22.9772C23.88 22.871 23.9397 22.727 23.9397 22.5768V16.9816H22.807Z" fill="#F5CB52"/>
<path d="M23.581 1.64766L23.9185 2.99766L22.8609 3.24141L22.5328 1.93008L23.581 1.64766Z" fill="#50B568"/>
<path d="M23.2371 5.18145L22.1701 5.38184L21.9041 4.09805V4.09746L22.9635 3.8584L23.2371 5.18145Z" fill="#50B568"/>
<path d="M22.5328 1.93008L22.8609 3.24141V3.242L21.8027 3.48575L21.4846 2.21251L22.5328 1.93008Z" fill="#E94253"/>
<path d="M22.807 19.8756V21.7008L21.9492 22.2973C21.8314 22.3791 21.6913 22.4229 21.5478 22.4229C21.4044 22.4229 21.2643 22.3791 21.1465 22.2973L19.3769 21.0662L17.6074 22.2973C17.4895 22.3791 17.3493 22.4229 17.2058 22.4229C17.0622 22.4229 16.922 22.3791 16.8041 22.2973L15.0351 21.0662L13.2656 22.2973C13.1478 22.3791 13.0077 22.4229 12.8642 22.4229C12.7208 22.4229 12.5807 22.3791 12.4629 22.2973L10.6933 21.0662L8.9244 22.2973C8.80645 22.3791 8.66631 22.4229 8.52274 22.4229C8.37918 22.4229 8.23904 22.3791 8.12108 22.2973L6.35155 21.0662L4.58261 22.2973C4.46465 22.3791 4.32451 22.4229 4.18095 22.4229C4.03738 22.4229 3.89724 22.3791 3.77929 22.2973L2.92206 21.7008C2.83214 21.2531 2.787 20.7975 2.78729 20.3408V19.7824L4.18124 20.7516L5.95018 19.5211C6.06803 19.439 6.20821 19.395 6.35184 19.395C6.49547 19.395 6.63565 19.439 6.7535 19.5211L8.52245 20.7516L10.292 19.5211C10.4098 19.439 10.55 19.395 10.6936 19.395C10.8373 19.395 10.9775 19.439 11.0953 19.5211L12.8642 20.7516L14.6332 19.5211C14.751 19.439 14.8912 19.395 15.0349 19.395C15.1785 19.395 15.3187 19.439 15.4365 19.5211L17.206 20.7516L18.975 19.5211C19.0928 19.439 19.233 19.395 19.3766 19.395C19.5203 19.395 19.6605 19.439 19.7783 19.5211L21.5478 20.7516L22.807 19.8756Z" fill="#F9436E"/>
<path d="M22.6283 16.9816H21.3334C21.1625 16.4011 20.8083 15.8916 20.3237 15.5291C19.8391 15.1666 19.2502 14.9707 18.6451 14.9707C18.04 14.9707 17.4511 15.1666 16.9665 15.5291C16.4819 15.8916 16.1277 16.4011 15.9568 16.9816H14.6642C14.8469 16.0599 15.3437 15.2301 16.0699 14.6337C16.7961 14.0374 17.7066 13.7114 18.6463 13.7114C19.5859 13.7114 20.4965 14.0374 21.2227 14.6337C21.9488 15.2301 22.4456 16.0599 22.6283 16.9816Z" fill="#FFDE8D"/>
<path d="M21.9041 4.09804L22.1701 5.38183L21.1031 5.58222L20.8453 4.33652L21.9041 4.09746V4.09804Z" fill="#E94253"/>
<path d="M20.6988 16.9816V18.801C20.6988 18.9513 20.7585 19.0954 20.8648 19.2016C20.971 19.3079 21.1152 19.3676 21.2654 19.3676C21.4157 19.3676 21.5598 19.3079 21.6661 19.2016C21.7723 19.0954 21.832 18.9513 21.832 18.801V16.9816H20.6988Z" fill="#F5CB52"/>
<path d="M21.4846 2.21249L21.8027 3.48574L20.7451 3.73007L20.4363 2.4955V2.49492L21.4846 2.21249Z" fill="#50B568"/>
<path d="M21.3334 16.9816H20.1123C19.9699 16.7162 19.7583 16.4943 19.4998 16.3397C19.2413 16.185 18.9458 16.1033 18.6445 16.1033C18.3433 16.1033 18.0478 16.185 17.7893 16.3397C17.5308 16.4943 17.3191 16.7162 17.1768 16.9816H15.9568C16.1278 16.4011 16.482 15.8915 16.9665 15.5291C17.4511 15.1666 18.04 14.9707 18.6451 14.9707C19.2503 14.9707 19.8392 15.1666 20.3237 15.5291C20.8083 15.8915 21.1625 16.4011 21.3334 16.9816Z" fill="#F5CB52"/>
<path d="M21.1031 5.58222L20.0361 5.78203L19.7865 4.57617V4.57558L20.8453 4.33652L21.1031 5.58222Z" fill="#50B568"/>
<path d="M20.4363 2.49551L20.7451 3.73008L19.6869 3.97383L19.3881 2.77794L20.4363 2.49551Z" fill="#E94253"/>
<path d="M20.1123 16.9816H17.1768C17.3191 16.7162 17.5308 16.4943 17.7893 16.3397C18.0478 16.185 18.3433 16.1033 18.6445 16.1033C18.9457 16.1033 19.2413 16.185 19.4998 16.3397C19.7582 16.4943 19.9699 16.7162 20.1123 16.9816Z" fill="#FFDE8D"/>
<path d="M20.107 12.3943L20.0631 12.5139L19.6289 13.6939C18.7868 13.1389 17.832 12.7776 16.8334 12.6363C16.7602 12.6258 16.6863 12.6164 16.6131 12.6076L16.6828 12.4184L17.0912 11.3086C18.1835 11.3557 19.2354 11.7345 20.107 12.3943Z" fill="#50B568"/>
<path d="M19.3881 2.77792L4.09161 6.89941C4.02214 6.91817 3.96076 6.95924 3.91693 7.01631C3.8731 7.07338 3.84924 7.14327 3.84903 7.21523C3.84916 7.24209 3.85251 7.26884 3.85899 7.29492C3.87993 7.37827 3.9327 7.4501 4.00598 7.495C4.07925 7.53991 4.16721 7.55432 4.25098 7.53515L19.6869 3.97382L19.3881 2.77792Z" fill="#EA846C"/>
<path d="M16.8334 12.6369C15.9444 12.9518 15.1525 13.4923 14.5354 14.2055L14.5342 14.2043C14.1271 13.8036 13.6594 13.4694 13.1484 13.2141L14.1217 12.815L14.1686 12.7957C14.3485 12.7217 14.4917 12.5793 14.5668 12.3998C14.6418 12.2203 14.6425 12.0183 14.5688 11.8383L14.3766 11.3701C14.3895 11.3672 14.4023 11.3648 14.4158 11.3631C15.45 11.2107 16.3266 11.6332 16.6828 12.4184L16.6131 12.6076C16.6863 12.6164 16.7602 12.6258 16.8334 12.6363V12.6369Z" fill="#EA846C"/>
<path d="M14.5688 11.8383C14.6425 12.0183 14.6418 12.2203 14.5668 12.3998C14.4917 12.5793 14.3485 12.7217 14.1686 12.7957L14.1217 12.815L13.9008 12.276C13.8636 12.1858 13.8466 12.0885 13.8511 11.991C13.8556 11.8935 13.8815 11.7982 13.9268 11.7118C13.9722 11.6254 14.036 11.55 14.1137 11.491C14.1914 11.4319 14.2812 11.3907 14.3766 11.3701L14.5688 11.8383Z" fill="#FFDE8D"/>
<path d="M9.31172 12.825C9.61851 12.7436 9.93181 12.6891 10.2481 12.6621C10.4027 12.6486 10.5592 12.642 10.7174 12.6422C10.875 12.6422 11.0307 12.6488 11.1844 12.6621C11.8682 12.7197 12.5347 12.907 13.1484 13.2141C13.6595 13.4694 14.1271 13.8035 14.5342 14.2043L14.5354 14.2055C14.224 14.5642 13.9608 14.9621 13.7525 15.3891L13.7508 15.3885C13.3193 14.9034 12.7778 14.5288 12.1716 14.2962C11.5655 14.0636 10.9124 13.9798 10.2671 14.0518C9.62191 14.1237 9.00334 14.3494 8.46334 14.7098C7.92334 15.0703 7.47765 15.555 7.16368 16.1232L6.60059 15.2637C6.36882 15.3297 6.14158 15.4107 5.92032 15.5062C6.27266 14.8515 6.75533 14.2758 7.33859 13.8147C7.92185 13.3536 8.59335 13.0168 9.31172 12.825Z" fill="#FFDE8D"/>
<path d="M13.7508 15.3885L13.7525 15.3891C13.515 15.8752 13.3519 16.3943 13.2686 16.9289C13.0434 16.4343 12.6795 16.0157 12.2211 15.724C11.7626 15.4322 11.2293 15.2799 10.6859 15.2855C10.1425 15.2911 9.61239 15.4543 9.16001 15.7554C8.70763 16.0565 8.35241 16.4825 8.13751 16.9816H6.81094C6.8489 16.8471 6.89389 16.7147 6.94571 16.585V16.5844C7.08106 16.5264 7.21895 16.4721 7.35938 16.4215L7.16368 16.1232C7.47765 15.555 7.92334 15.0703 8.46334 14.7098C9.00334 14.3494 9.62191 14.1237 10.2671 14.0518C10.9124 13.9798 11.5655 14.0636 12.1716 14.2962C12.7778 14.5288 13.3193 14.9033 13.7508 15.3885Z" fill="#F5CB52"/>
<path d="M13.2685 16.9289C13.4217 15.959 13.8337 15.0483 14.4611 14.293C15.0885 13.5376 15.9081 12.9655 16.8334 12.6369V12.6363C17.832 12.7776 18.7868 13.1388 19.6289 13.6939L19.5984 13.8246C19.0666 13.6968 18.5144 13.6776 17.975 13.7684C17.4355 13.8591 16.92 14.0579 16.4592 14.3527C15.9985 14.6475 15.602 15.0323 15.2935 15.484C14.9851 15.9358 14.7711 16.4452 14.6643 16.9816H13.2603C13.2627 16.9641 13.2656 16.9465 13.2685 16.9289Z" fill="#F5CB52"/>
<path d="M13.2686 16.9289C13.2656 16.9465 13.2627 16.9641 13.2604 16.9816H11.9672C11.8107 16.8045 11.6184 16.6626 11.4029 16.5654C11.1874 16.4682 10.9538 16.418 10.7174 16.418C10.481 16.418 10.2473 16.4682 10.0319 16.5654C9.8164 16.6626 9.62406 16.8045 9.46759 16.9816H8.13751C8.35242 16.4825 8.70763 16.0565 9.16002 15.7554C9.6124 15.4543 10.1425 15.2911 10.6859 15.2855C11.2293 15.2799 11.7626 15.4322 12.2211 15.724C12.6796 16.0157 13.0434 16.4343 13.2686 16.9289Z" fill="#FFDE8D"/>
<path d="M12.1119 5.72168L11.1844 5.93555V12.6621C11.5009 12.6886 11.8144 12.7431 12.1213 12.825L12.1119 5.72168Z" fill="#FFDE8D"/>
<path d="M11.9672 16.9816H9.46759C9.62406 16.8045 9.8164 16.6626 10.0319 16.5654C10.2473 16.4682 10.481 16.418 10.7174 16.418C10.9538 16.418 11.1874 16.4682 11.4029 16.5654C11.6184 16.6626 11.8107 16.8045 11.9672 16.9816Z" fill="#F5CB52"/>
<path d="M11.1844 5.93555V12.6621C11.0309 12.6486 10.8752 12.642 10.7174 12.6422C10.5596 12.6424 10.4031 12.649 10.248 12.6621V6.15176L11.1844 5.93555Z" fill="#F5CB52"/>
<path d="M10.2481 6.15176V12.6621C9.93181 12.6891 9.61851 12.7436 9.31172 12.825L9.30997 6.36797L10.2481 6.15176Z" fill="#FFDE8D"/>
<path d="M9.30997 6.36797L8.3754 6.58359V13.1695C8.67621 13.026 8.98966 12.9107 9.31172 12.825L9.30997 6.36797Z" fill="#F5CB52"/>
<path d="M8.3754 12.7594V13.1695C7.32955 13.6678 6.46962 14.4863 5.92032 15.5062C5.16081 15.8344 4.49138 16.3404 3.96856 16.9816H2.9086C3.1213 16.7666 3.30294 16.5293 3.38672 16.2299C3.55079 15.6486 3.62872 14.9719 4.22227 14.6643C4.82403 14.3514 5.55001 14.5119 6.06739 14.0098C6.58946 13.5041 6.81856 12.6586 7.66758 12.6521C7.90709 12.658 8.1449 12.694 8.3754 12.7594Z" fill="#B2FF8A"/>
<path d="M7.16368 16.1232L7.35939 16.4215C7.21876 16.4719 7.08087 16.5262 6.94572 16.5844V16.585C6.6783 16.7 6.41876 16.8325 6.16876 16.9816H3.96857C4.49139 16.3404 5.16081 15.8344 5.92032 15.5063C6.14159 15.4107 6.36882 15.3297 6.6006 15.2637L7.16368 16.1232Z" fill="#E94253"/>
<path d="M6.94572 16.585C6.89389 16.7147 6.84891 16.8472 6.81095 16.9816H6.16876C6.41876 16.8325 6.67831 16.7 6.94572 16.585Z" fill="#FFDE8D"/>
<path d="M4.78745 22.1547L4.58237 22.2973C4.46441 22.3791 4.32427 22.4229 4.18071 22.4229C4.03715 22.4229 3.89701 22.3791 3.77905 22.2973L2.92206 21.7008C3.23655 23.2558 4.07923 24.6541 5.30716 25.6586C6.5351 26.6631 8.0727 27.212 9.65917 27.2121H11.417C9.91046 27.212 8.44568 26.717 7.2479 25.8033C6.05011 24.8896 5.18565 23.6076 4.78745 22.1547Z" fill="#4C7BBF"/>
<path d="M4.5451 19.7824V16.9816H2.78729V19.7824L4.18124 20.7516L4.54704 20.4971C4.54587 20.4451 4.5451 20.3931 4.5451 20.3408V19.7824Z" fill="#4C7BBF"/>
<path d="M4.67987 21.7008C4.6002 21.3042 4.55569 20.9015 4.54686 20.4971L4.18124 20.7516L2.78729 19.7824V20.3408C2.787 20.7975 2.83214 21.2531 2.92206 21.7008L3.77929 22.2973C3.89724 22.3791 4.03738 22.423 4.18095 22.423C4.32451 22.423 4.46465 22.3791 4.58261 22.2973L4.78768 22.1547C4.74675 22.0054 4.71081 21.8541 4.67987 21.7008Z" fill="#C1385F"/>
<path d="M7.31836 11.6552C7.31836 11.7019 7.33688 11.7466 7.36984 11.7795C7.40281 11.8125 7.44752 11.831 7.49414 11.831C7.54076 11.831 7.58547 11.8125 7.61844 11.7795C7.6514 11.7466 7.66992 11.7019 7.66992 11.6552V11.4715C7.66992 11.4249 7.6514 11.3802 7.61844 11.3472C7.58547 11.3142 7.54076 11.2957 7.49414 11.2957C7.44752 11.2957 7.40281 11.3142 7.36984 11.3472C7.33688 11.3802 7.31836 11.4249 7.31836 11.4715V11.6552Z" fill="#284268"/>
<path d="M7.49414 10.9677C7.54076 10.9677 7.58547 10.9492 7.61844 10.9162C7.6514 10.8832 7.66992 10.8385 7.66992 10.7919V8.9117C7.66992 8.86508 7.6514 8.82037 7.61844 8.7874C7.58547 8.75444 7.54076 8.73592 7.49414 8.73592C7.44752 8.73592 7.40281 8.75444 7.36984 8.7874C7.33688 8.82037 7.31836 8.86508 7.31836 8.9117V10.7919C7.31836 10.8385 7.33688 10.8832 7.36984 10.9162C7.40281 10.9492 7.44752 10.9677 7.49414 10.9677Z" fill="#284268"/>
<path d="M4.52929 18.2588C4.52929 18.2121 4.51077 18.1674 4.4778 18.1345C4.44484 18.1015 4.40013 18.083 4.35351 18.083H4.06323C4.01661 18.083 3.9719 18.1015 3.93894 18.1345C3.90597 18.1674 3.88745 18.2121 3.88745 18.2588C3.88745 18.3054 3.90597 18.3501 3.93894 18.3831C3.9719 18.416 4.01661 18.4345 4.06323 18.4345H4.35351C4.40013 18.4345 4.44484 18.416 4.4778 18.3831C4.51077 18.3501 4.52929 18.3054 4.52929 18.2588Z" fill="#284268"/>
<path d="M5.4747 18.4345H9.19716C9.24378 18.4345 9.28849 18.416 9.32146 18.3831C9.35442 18.3501 9.37294 18.3054 9.37294 18.2588C9.37294 18.2121 9.35442 18.1674 9.32146 18.1345C9.28849 18.1015 9.24378 18.083 9.19716 18.083H5.4747C5.42808 18.083 5.38337 18.1015 5.35041 18.1345C5.31744 18.1674 5.29892 18.2121 5.29892 18.2588C5.29892 18.3054 5.31744 18.3501 5.35041 18.3831C5.38337 18.416 5.42808 18.4345 5.4747 18.4345Z" fill="#284268"/>
<path d="M27.2084 3.24487C27.1949 3.17941 27.1684 3.11731 27.1306 3.06219C27.0928 3.00707 27.0444 2.96004 26.9882 2.92384C26.932 2.88764 26.8692 2.86301 26.8034 2.85138C26.7376 2.83975 26.6701 2.84135 26.6049 2.8561L12.2894 6.08819C12.2894 5.99912 12.2889 5.92289 12.2886 5.86108L26.5766 2.56494C26.6417 2.5499 26.7033 2.52202 26.7575 2.48293C26.8118 2.44385 26.8577 2.39435 26.8926 2.33731C26.9275 2.28028 26.9507 2.21686 26.9608 2.15077C26.971 2.08467 26.9678 2.01722 26.9516 1.95235L26.7493 1.14317C26.7331 1.07833 26.7041 1.01737 26.664 0.963853C26.624 0.910336 26.5737 0.86533 26.5161 0.83146C26.4584 0.79759 26.3946 0.775534 26.3284 0.766578C26.2621 0.757623 26.1948 0.761947 26.1302 0.779299L4.04612 6.72961C3.92816 6.7614 3.82579 6.83501 3.75809 6.9367C3.69039 7.0384 3.66199 7.16125 3.67817 7.28234C3.69436 7.40343 3.75403 7.5145 3.84606 7.59485C3.93809 7.6752 4.0562 7.71933 4.17837 7.71903C4.21602 7.71901 4.25354 7.71472 4.29022 7.70625L8.19942 6.80444V7.0118L4.29491 7.89317C4.1663 7.92231 4.05426 8.00074 3.98285 8.1116C3.91145 8.22247 3.88638 8.35692 3.91304 8.48607C3.9397 8.61521 4.01595 8.72875 4.12542 8.80228C4.23489 8.87581 4.36883 8.90346 4.49847 8.8793L8.19919 8.18473V12.5382C8.02906 12.4994 7.8553 12.4787 7.68081 12.4765H7.66622C6.98653 12.4818 6.64634 12.9609 6.34622 13.3837C6.22773 13.5621 6.09348 13.7295 5.94509 13.8839C5.68054 14.1402 5.34028 14.2008 4.98005 14.2651C4.7019 14.3147 4.41421 14.3661 4.14075 14.5082C3.56835 14.8057 3.41894 15.396 3.2871 15.9168C3.26448 16.0065 3.24198 16.0956 3.21755 16.1826C3.15813 16.3935 3.03784 16.5884 2.83312 16.806H2.78735C2.74073 16.806 2.69602 16.8246 2.66306 16.8575C2.63009 16.8905 2.61157 16.9352 2.61157 16.9818V20.3406C2.61367 22.209 3.35684 24.0003 4.67804 25.3215C5.99924 26.6427 7.79056 27.3858 9.65899 27.3878H9.70522V29.0625C9.70522 29.1091 9.72374 29.1538 9.75671 29.1868C9.78968 29.2198 9.83439 29.2383 9.88101 29.2383H19.7502C19.7968 29.2383 19.8415 29.2198 19.8745 29.1868C19.9074 29.1538 19.926 29.1091 19.926 29.0625V27.3878H19.9723C21.8406 27.3857 23.6319 26.6425 24.953 25.3214C26.2742 24.0002 27.0173 22.209 27.0194 20.3406V16.9818C27.0194 16.9352 27.0009 16.8905 26.9679 16.8575C26.9349 16.8246 26.8902 16.806 26.8436 16.806H26.4906C26.8829 15.8072 26.7012 14.7904 25.9567 13.8493C25.9093 13.7889 25.8575 13.7321 25.8017 13.6794C25.5829 12.733 25.0048 12.204 24.0814 12.109C24.0474 12.1056 24.013 12.1121 23.9826 12.1279C23.9522 12.1437 23.9271 12.1681 23.9103 12.1979C23.8936 12.2278 23.8859 12.2619 23.8883 12.2961C23.8907 12.3303 23.903 12.363 23.9237 12.3903L24.2008 12.7536C23.9297 12.7095 23.6523 12.7235 23.3869 12.7946C23.3539 12.803 23.324 12.8209 23.3009 12.846C23.2779 12.8712 23.2626 12.9024 23.257 12.9361C23.2514 12.9697 23.2558 13.0043 23.2695 13.0355C23.2832 13.0667 23.3057 13.0933 23.3342 13.112L24.837 14.0964C24.8348 14.1657 24.8384 14.2352 24.8477 14.304C24.9161 14.8154 24.8466 15.2104 24.6411 15.4775C24.4867 15.6784 24.2509 15.8115 23.9392 15.8747C23.6445 15.049 23.1601 14.3039 22.5251 13.6995C21.89 13.095 21.122 12.6479 20.2827 12.3943C20.2827 12.3673 20.2766 12.3408 20.2647 12.3166C20.2528 12.2924 20.2355 12.2713 20.2141 12.2549C19.3141 11.5735 18.2281 11.1821 17.1003 11.1328C17.0628 11.1309 17.0258 11.1411 16.9945 11.1617C16.9632 11.1824 16.9393 11.2125 16.9263 11.2477L16.6463 12.0088C16.1788 11.3672 15.3345 11.0503 14.39 11.1894C14.2643 11.2077 14.1444 11.2546 14.0396 11.3264C13.9348 11.3982 13.8478 11.4931 13.7854 11.6038C13.7215 11.7152 13.684 11.8397 13.6758 11.9679C13.6676 12.096 13.6888 12.2243 13.7379 12.343L13.8922 12.7189L13.1562 13.0209C12.8794 12.8874 12.5919 12.777 12.2968 12.691C12.2965 12.0529 12.2948 9.27662 12.2921 7.41446L12.7558 7.32739V9.14379C12.7558 9.24926 12.7766 9.3537 12.817 9.45114C12.8573 9.54858 12.9165 9.63712 12.9911 9.7117C13.0657 9.78628 13.1542 9.84544 13.2516 9.8858C13.3491 9.92616 13.4535 9.94694 13.559 9.94694C13.6645 9.94694 13.7689 9.92616 13.8663 9.8858C13.9638 9.84544 14.0523 9.78628 14.1269 9.7117C14.2015 9.63712 14.2606 9.54858 14.301 9.45114C14.3414 9.3537 14.3621 9.24926 14.3621 9.14379V8.82738C14.3621 8.78077 14.3436 8.73605 14.3107 8.70309C14.2777 8.67012 14.233 8.6516 14.1864 8.6516C14.1397 8.6516 14.095 8.67012 14.0621 8.70309C14.0291 8.73605 14.0106 8.78077 14.0106 8.82738V9.14379C14.0106 9.26356 13.963 9.37842 13.8783 9.46311C13.7936 9.5478 13.6788 9.59537 13.559 9.59537C13.4392 9.59537 13.3244 9.5478 13.2397 9.46311C13.155 9.37842 13.1074 9.26356 13.1074 9.14379V7.26141L26.9777 4.65897C27.0435 4.64656 27.1061 4.62117 27.162 4.58427C27.2179 4.54737 27.2658 4.49971 27.3031 4.44407C27.3403 4.38843 27.3661 4.32592 27.3789 4.2602C27.3917 4.19448 27.3913 4.12687 27.3777 4.06131L27.2084 3.24487ZM26.2217 1.11862C26.2412 1.11336 26.2615 1.11204 26.2815 1.11473C26.3015 1.11742 26.3208 1.12407 26.3382 1.1343C26.3556 1.14452 26.3707 1.15811 26.3828 1.17427C26.3949 1.19043 26.4037 1.20884 26.4085 1.22842L26.6108 2.0376C26.6157 2.05718 26.6167 2.07754 26.6136 2.09749C26.6105 2.11743 26.6035 2.13657 26.593 2.15379C26.5825 2.171 26.5686 2.18594 26.5522 2.19773C26.5358 2.20952 26.5173 2.21793 26.4976 2.22246L24.0473 2.78772L23.7937 1.77282L26.2217 1.11862ZM23.4541 1.86428L23.7047 2.86676L22.9895 3.0317L22.7454 2.0553L23.4541 1.86428ZM22.4059 2.14676L22.6469 3.11074L21.9316 3.27574L21.6973 2.33772L22.4059 2.14676ZM21.3574 2.42918L21.5888 3.35496L20.8736 3.51996L20.6487 2.62032L21.3574 2.42918ZM20.3092 2.71166L20.5312 3.59883L19.816 3.76383L19.6008 2.9025L20.3092 2.71166ZM4.21101 7.36401C4.1721 7.3733 4.13109 7.36686 4.0969 7.3461C4.06271 7.32534 4.03809 7.29192 4.02839 7.25311C4.01869 7.2143 4.02469 7.17323 4.04509 7.13883C4.06549 7.10442 4.09865 7.07945 4.13735 7.06934L19.2611 2.99414L19.4733 3.84293L4.21101 7.36401ZM11.9454 12.6007C11.7522 12.558 11.557 12.5255 11.3604 12.5033V6.07559L11.9374 5.94246C11.9417 7.0718 11.9446 11.5435 11.9453 12.6004L11.9454 12.6007ZM11.0088 6.15633V12.474C10.9121 12.4691 10.8151 12.4666 10.7176 12.4665C10.6192 12.4665 10.5214 12.4698 10.4239 12.4748V6.29121L11.0088 6.15633ZM10.0723 6.37237V12.5039C9.87562 12.5265 9.68031 12.5594 9.48714 12.6025L9.48544 6.5076L10.0723 6.37237ZM9.13569 12.693C8.93714 12.751 8.74194 12.82 8.55099 12.8995V6.72328L9.13405 6.58852L9.13569 12.693ZM4.4339 8.53383C4.39459 8.5416 4.3538 8.53353 4.32041 8.51137C4.28702 8.48922 4.26373 8.45478 4.2556 8.41554C4.24747 8.3763 4.25517 8.33544 4.27702 8.30185C4.29887 8.26826 4.33309 8.24466 4.37226 8.23617L8.19942 7.37227V7.82701L4.4339 8.53383ZM3.55622 16.2777C3.58147 16.1878 3.6048 16.0956 3.62823 16.0029C3.75269 15.5102 3.87022 15.0449 4.30312 14.8199C4.52899 14.7028 4.77819 14.6581 5.04198 14.6111C5.43837 14.5403 5.84823 14.4672 6.18995 14.1364C6.35422 13.9674 6.50258 13.7836 6.63315 13.5874C6.92085 13.1821 7.16929 12.8321 7.66921 12.8282C7.84813 12.83 8.02617 12.8534 8.19942 12.8981V13.0605C7.1823 13.569 6.34374 14.3746 5.79491 15.3705C5.05925 15.6993 4.40741 16.19 3.8881 16.8061H3.29196C3.4112 16.6473 3.50073 16.4683 3.55622 16.2777ZM7.5062 16.3255L7.37009 16.1176C7.67527 15.5981 8.09721 15.1568 8.6025 14.8286C9.10778 14.5004 9.68253 14.2944 10.2812 14.2268C10.8799 14.1593 11.4861 14.232 12.0518 14.4393C12.6176 14.6466 13.1272 14.9828 13.5405 15.4212C13.3919 15.7454 13.2745 16.083 13.1899 16.4295C12.8967 15.9926 12.4932 15.6411 12.0203 15.4107C11.5475 15.1802 11.022 15.079 10.4973 15.1172C9.97267 15.1554 9.46746 15.3318 9.033 15.6284C8.59853 15.925 8.25028 16.3313 8.02358 16.806H7.05093C7.06136 16.7762 7.07255 16.7467 7.08368 16.7173C7.19384 16.6711 7.30522 16.6275 7.41767 16.5873C7.44271 16.5784 7.46539 16.5638 7.48401 16.5449C7.50263 16.5259 7.5167 16.5029 7.52516 16.4777C7.53362 16.4525 7.53626 16.4257 7.53286 16.3993C7.52946 16.373 7.52013 16.3477 7.50556 16.3255H7.5062ZM10.7176 16.242C10.47 16.2422 10.225 16.2922 9.99718 16.3892C9.76934 16.4861 9.56334 16.6278 9.39146 16.806H8.41845C8.64697 16.3981 8.9801 16.0584 9.38354 15.8219C9.78698 15.5855 10.2461 15.4608 10.7138 15.4608C11.1814 15.4608 11.6406 15.5855 12.044 15.8219C12.4474 16.0584 12.7806 16.3981 13.0091 16.806H12.0438C11.8719 16.6279 11.6659 16.4861 11.438 16.3892C11.2102 16.2924 10.9652 16.2424 10.7176 16.2422V16.242ZM11.4836 16.806H9.95167C10.183 16.667 10.4478 16.5935 10.7176 16.5935C10.9875 16.5935 11.2523 16.667 11.4836 16.806ZM6.12228 16.806H4.35989C4.95493 16.1819 5.70079 15.7216 6.52552 15.4696L7.09177 16.3342C6.75691 16.4661 6.43284 16.6238 6.12251 16.806H6.12228ZM2.96313 17.1576H20.5231V18.801C20.5248 18.9967 20.6038 19.1838 20.7428 19.3215C20.8818 19.4593 21.0695 19.5366 21.2652 19.5366C21.4609 19.5366 21.6487 19.4593 21.7877 19.3215C21.9266 19.1838 22.0056 18.9967 22.0073 18.801V17.1576H22.6311V19.7838L21.5478 20.5376L19.8786 19.3765C19.7311 19.2745 19.5561 19.2199 19.3767 19.2199C19.1974 19.2199 19.0223 19.2745 18.8749 19.3765L17.2058 20.5376L15.5368 19.3765C15.3893 19.2746 15.2142 19.2199 15.0349 19.2199C14.8555 19.2199 14.6805 19.2746 14.5329 19.3765L12.8642 20.5376L11.1956 19.3765C11.048 19.2746 10.873 19.2199 10.6936 19.2199C10.5143 19.2199 10.3392 19.2746 10.1917 19.3765L8.52274 20.5376L6.85376 19.3765C6.70624 19.2745 6.53116 19.2199 6.35182 19.2199C6.17248 19.2199 5.99739 19.2745 5.84987 19.3765L4.18106 20.5376L2.96337 19.6904L2.96313 17.1576ZM18.6459 15.9271C18.3309 15.9271 18.021 16.0079 17.7461 16.1617C17.4712 16.3156 17.2403 16.5375 17.0756 16.806H16.2026C16.3964 16.3165 16.7328 15.8964 17.1683 15.6004C17.6038 15.3045 18.1182 15.1462 18.6447 15.1462C19.1713 15.1462 19.6857 15.3045 20.1211 15.6004C20.5566 15.8964 20.8931 16.3165 21.0869 16.806H20.2129C20.0483 16.5382 19.818 16.3168 19.5437 16.163C19.2695 16.0092 18.9606 15.9281 18.6462 15.9273L18.6459 15.9271ZM19.7794 16.806H17.5086C17.6481 16.6409 17.822 16.5081 18.0181 16.4171C18.2142 16.326 18.4279 16.2789 18.6441 16.2789C18.8603 16.2789 19.0739 16.326 19.27 16.4171C19.4662 16.5081 19.6401 16.6409 19.7796 16.806H19.7794ZM20.8747 17.1576H21.6562V18.801C21.655 18.9038 21.6133 19.0019 21.5402 19.0741C21.4671 19.1463 21.3684 19.1868 21.2657 19.1868C21.1629 19.1868 21.0643 19.1463 20.9912 19.0741C20.9181 19.0019 20.8764 18.9038 20.8751 18.801L20.8747 17.1576ZM21.4617 16.806C21.2602 16.2191 20.8804 15.7097 20.3754 15.3491C19.8704 14.9885 19.2653 14.7946 18.6448 14.7946C18.0242 14.7946 17.4192 14.9885 16.9141 15.3491C16.4091 15.7097 16.0294 16.2191 15.8279 16.806H14.8846C15.0988 15.9712 15.5846 15.2313 16.2656 14.7029C16.9466 14.1746 17.784 13.8879 18.6459 13.8879C19.5078 13.8879 20.3453 14.1746 21.0262 14.7029C21.7072 15.2313 22.1931 15.9712 22.4073 16.806H21.4617ZM2.96337 20.3406V20.1187L4.08069 20.896C4.11015 20.9165 4.14518 20.9275 4.18106 20.9275C4.21695 20.9275 4.25198 20.9165 4.28144 20.896L6.05097 19.6652C6.13946 19.604 6.24451 19.5712 6.35211 19.5712C6.45971 19.5712 6.56476 19.604 6.65325 19.6652L8.42278 20.8961C8.45225 20.9166 8.48729 20.9275 8.52318 20.9275C8.55908 20.9275 8.59412 20.9166 8.62358 20.8961L10.3931 19.6652C10.4816 19.604 10.5867 19.5712 10.6943 19.5712C10.8019 19.5712 10.907 19.604 10.9955 19.6652L12.7645 20.8961C12.7939 20.9166 12.829 20.9275 12.8649 20.9275C12.9008 20.9275 12.9358 20.9166 12.9653 20.8961L14.7344 19.6652C14.8229 19.604 14.9279 19.5712 15.0356 19.5712C15.1432 19.5712 15.2482 19.604 15.3367 19.6652L17.1063 20.8961C17.1357 20.9165 17.1707 20.9275 17.2066 20.9275C17.2425 20.9275 17.2775 20.9165 17.307 20.8961L19.0765 19.6652C19.165 19.604 19.2701 19.5712 19.3777 19.5712C19.4853 19.5712 19.5903 19.604 19.6788 19.6652L21.4484 20.8961C21.4778 20.9165 21.5128 20.9275 21.5487 20.9275C21.5846 20.9275 21.6196 20.9165 21.6491 20.8961L22.6322 20.2122V21.6087L21.8498 22.153C21.7614 22.2142 21.6563 22.247 21.5487 22.247C21.4411 22.247 21.336 22.2142 21.2476 22.153L19.478 20.922C19.4486 20.9015 19.4135 20.8905 19.3776 20.8905C19.3417 20.8905 19.3067 20.9015 19.2772 20.922L17.5077 22.1529C17.4192 22.2141 17.3141 22.2469 17.2065 22.2469C17.0989 22.2469 16.9939 22.2141 16.9054 22.1529L15.1359 20.922C15.1064 20.9015 15.0714 20.8905 15.0355 20.8905C14.9996 20.8905 14.9645 20.9015 14.9351 20.922L13.1654 22.1528C13.0769 22.2141 12.9719 22.2469 12.8642 22.2469C12.7566 22.2469 12.6516 22.2141 12.5631 22.1528L10.794 20.922C10.7646 20.9015 10.7295 20.8905 10.6936 20.8905C10.6578 20.8905 10.6227 20.9015 10.5933 20.922L8.82374 22.1529C8.73524 22.2141 8.6302 22.2469 8.5226 22.2469C8.415 22.2469 8.30995 22.2141 8.22146 22.1529L6.45192 20.922C6.42246 20.9015 6.38742 20.8905 6.35152 20.8905C6.31563 20.8905 6.28059 20.9015 6.25112 20.922L4.48241 22.1529C4.39392 22.2141 4.28886 22.2469 4.18124 22.2469C4.07362 22.2469 3.96856 22.2141 3.88007 22.1529L3.08202 21.5977C3.00302 21.1833 2.96329 20.7624 2.96337 20.3406ZM26.4695 21.9594L26.1912 22.1527C26.1027 22.2139 25.9976 22.2467 25.8901 22.2467C25.7825 22.2467 25.6774 22.2139 25.5889 22.1527L24.1155 21.128V19.7316L25.3882 20.6167C25.5357 20.7187 25.7107 20.7734 25.8901 20.7734C26.0694 20.7734 26.2444 20.7187 26.3919 20.6167L26.6668 20.4256C26.6606 20.9428 26.5944 21.4575 26.4695 21.9594ZM26.6678 17.1576V19.9966L26.1914 20.3282C26.1029 20.3893 25.9979 20.4221 25.8903 20.4221C25.7827 20.4221 25.6777 20.3893 25.5892 20.3282L24.1158 19.3034V17.1576H26.6678ZM25.681 14.0674C25.8777 14.3116 26.038 14.583 26.1571 14.873L25.2187 14.8231C25.2299 14.6343 25.2223 14.4449 25.196 14.2576C25.1649 14.0249 25.2269 13.8517 25.3048 13.8187C25.3715 13.7903 25.5139 13.8562 25.681 14.0674ZM23.928 13.0812C24.1653 13.0876 24.398 13.1486 24.608 13.2596C24.6434 13.2778 24.684 13.2834 24.7231 13.2755C24.7622 13.2676 24.7975 13.2467 24.8231 13.2161C24.8487 13.1855 24.8631 13.1471 24.864 13.1073C24.8649 13.0674 24.8523 13.0284 24.8281 12.9967L24.4917 12.5556C24.9118 12.7042 25.2028 13.004 25.3723 13.4616C25.3023 13.4565 25.232 13.4679 25.1672 13.495C25.0602 13.543 24.9738 13.6274 24.9233 13.7332L23.928 13.0812ZM24.9199 15.6921C25.0366 15.5376 25.1202 15.3606 25.1655 15.1723L26.2717 15.2309C26.3969 15.7591 26.3399 16.3141 26.1099 16.8058H25.5709L24.7488 15.872C24.8115 15.8177 24.8688 15.7575 24.9199 15.6921ZM24.4545 16.0697L25.1028 16.806H24.1829C24.1484 16.6052 24.103 16.4064 24.0469 16.2105C24.1879 16.1805 24.3247 16.1332 24.4542 16.0697H24.4545ZM24.1158 22.5766V21.5566L25.3882 22.4414C25.5229 22.5347 25.6809 22.5885 25.8445 22.5969C26.0081 22.6053 26.1708 22.5679 26.3143 22.4889C25.8637 23.8137 25.0099 24.9644 23.8727 25.7798C22.7354 26.5953 21.3716 27.0346 19.9723 27.0363H13.7109C13.6643 27.0363 13.6196 27.0548 13.5866 27.0878C13.5537 27.1207 13.5351 27.1654 13.5351 27.2121C13.5351 27.2587 13.5537 27.3034 13.5866 27.3363C13.6196 27.3693 13.6643 27.3878 13.7109 27.3878H19.5744V28.8867H10.0568V27.3878H11.0156C11.0622 27.3878 11.1069 27.3693 11.1399 27.3363C11.1729 27.3034 11.1914 27.2587 11.1914 27.2121C11.1914 27.1654 11.1729 27.1207 11.1399 27.0878C11.1069 27.0548 11.0622 27.0363 11.0156 27.0363H9.65899C8.1917 27.0344 6.76552 26.5514 5.59901 25.6613C4.4325 24.7713 3.59004 23.5232 3.20073 22.1085L3.67909 22.4414C3.82662 22.5434 4.0017 22.598 4.18104 22.598C4.36037 22.598 4.53545 22.5434 4.68298 22.4414L6.35185 21.2804L8.02083 22.4414C8.16814 22.5439 8.34329 22.5988 8.52274 22.5988C8.7022 22.5988 8.87735 22.5439 9.02466 22.4414L10.6936 21.2804L12.3623 22.4414C12.5098 22.5434 12.6849 22.598 12.8642 22.598C13.0436 22.598 13.2187 22.5434 13.3662 22.4414L15.0351 21.2805L16.704 22.4414C16.8514 22.5434 17.0265 22.598 17.2058 22.598C17.3852 22.598 17.5602 22.5434 17.7077 22.4414L19.3769 21.2805L21.0459 22.4414C21.1934 22.5434 21.3685 22.5981 21.5478 22.5981C21.7271 22.5981 21.9022 22.5434 22.0497 22.4414L22.6313 22.0368V22.5547C22.6291 22.7419 22.6965 22.9234 22.8204 23.0638C22.9442 23.2043 23.1158 23.2939 23.3018 23.3152C23.4048 23.325 23.5087 23.3132 23.6069 23.2806C23.7051 23.248 23.7953 23.1952 23.8719 23.1257C23.9485 23.0562 24.0098 22.9714 24.0517 22.8769C24.0937 22.7823 24.1154 22.68 24.1155 22.5766H24.1158ZM22.9832 22.5766V17.1576H23.7643V22.5766C23.763 22.6793 23.7213 22.7775 23.6482 22.8497C23.5751 22.9219 23.4765 22.9624 23.3737 22.9624C23.271 22.9624 23.1723 22.9219 23.0992 22.8497C23.0261 22.7775 22.9844 22.6793 22.9832 22.5766ZM23.8269 16.806H22.7695C22.5969 16.0727 22.232 15.3986 21.7125 14.853C21.193 14.3074 20.5376 13.91 19.8136 13.7016L20.1717 12.7281C21.0972 13.0057 21.928 13.5333 22.5729 14.2528C23.2177 14.9723 23.6515 15.8558 23.8264 16.806H23.8269ZM17.2117 11.492C18.1791 11.5574 19.109 11.8916 19.8967 12.457L19.5398 13.4272C18.7199 12.9256 17.8059 12.5971 16.8542 12.462L17.2117 11.492ZM16.8516 12.8176C17.6267 12.9339 18.3756 13.1844 19.0648 13.5577C18.9268 13.5439 18.7872 13.5362 18.6461 13.5362C17.6911 13.5375 16.7645 13.8611 16.0163 14.4544C15.268 15.0478 14.7418 15.8762 14.5229 16.8057H13.4682C13.6345 15.9033 14.0343 15.0602 14.628 14.3604C15.2216 13.6607 15.9883 13.1287 16.8516 12.8176ZM14.0909 11.7776C14.135 11.6999 14.1997 11.6359 14.2779 11.5926L14.406 11.9047C14.454 12.0215 14.4609 12.1511 14.4256 12.2723C14.3904 12.3935 14.315 12.4992 14.2118 12.5719L14.0631 12.2095C14.0344 12.1401 14.022 12.0652 14.0269 11.9903C14.0317 11.9155 14.0536 11.8427 14.0909 11.7776ZM14.235 12.9581C14.3455 12.9128 14.446 12.8461 14.5308 12.7619C14.6155 12.6777 14.6829 12.5777 14.7289 12.4675C14.775 12.3573 14.7989 12.239 14.7993 12.1196C14.7997 12.0001 14.7766 11.8818 14.7312 11.7713L14.6267 11.5166C15.4591 11.4522 16.1708 11.7991 16.4915 12.4295L16.4483 12.5467C16.4421 12.5645 16.4389 12.5832 16.4387 12.6021C15.7118 12.9115 15.0586 13.3709 14.5217 13.9504C14.2271 13.6785 13.9043 13.4389 13.5588 13.2355L14.235 12.9581ZM14.2901 14.2166C14.0689 14.488 13.8738 14.7795 13.7071 15.0874C13.2599 14.6412 12.7186 14.3008 12.1228 14.0911C11.527 13.8813 10.8918 13.8075 10.2637 13.8751C9.63568 13.9428 9.03073 14.15 8.4932 14.4818C7.95568 14.8136 7.4992 15.2614 7.15722 15.7925L6.74782 15.1673C6.72726 15.1359 6.6972 15.1119 6.66203 15.0988C6.62685 15.0858 6.58842 15.0843 6.55235 15.0946C6.47794 15.116 6.40446 15.1389 6.33169 15.1628C6.75449 14.5291 7.30968 13.9946 7.95898 13.5962C8.60829 13.1977 9.33627 12.9448 10.0928 12.8549C10.8492 12.7649 11.6162 12.8401 12.3409 13.0752C13.0655 13.3103 13.7305 13.6997 14.2901 14.2166ZM12.2914 7.0568C12.2911 6.83297 12.2907 6.62813 12.2903 6.44842L19.6503 4.7867L19.8273 5.64287L12.2914 7.0568ZM20.173 5.57813L19.9934 4.70942L20.7094 4.54776L20.8945 5.44266L20.173 5.57813ZM21.24 5.37791L21.0525 4.4703L21.7685 4.30864L21.9615 5.24256L21.24 5.37791ZM22.307 5.17776L22.1114 4.23106L22.8274 4.06946L23.0284 5.04211L22.307 5.17776ZM23.374 4.97754L23.1704 3.99199L23.8864 3.83033L24.0954 4.84201L23.374 4.97754ZM27.0108 4.24864C26.9996 4.26547 26.9852 4.27989 26.9683 4.29104C26.9515 4.30219 26.9325 4.30985 26.9127 4.31356L24.4411 4.77733L24.2293 3.75299L26.6823 3.19922C26.7019 3.19478 26.7223 3.1943 26.7421 3.19781C26.7619 3.20132 26.7808 3.20875 26.7977 3.21966C26.8146 3.23058 26.8292 3.24475 26.8406 3.26137C26.8519 3.27798 26.8599 3.29669 26.8639 3.31641L27.0332 4.13303C27.0374 4.1528 27.0375 4.17321 27.0337 4.19304C27.0298 4.21287 27.022 4.23174 27.0108 4.24852V4.24864Z" fill="#284268"/>
</svg>
