<svg width="30" height="30" viewBox="0 0 30 30" fill="none" xmlns="http://www.w3.org/2000/svg">
<g clip-path="url(#clip0_0_216)">
<path d="M6.13594 7.96992L6.65215 14.4674L6.66797 14.4662H20.4041L20.9203 7.96992H6.13594Z" fill="#C5E3FF"/>
<path d="M6.13594 7.96992L6.65215 14.4674L6.66797 14.4662H8.40985L7.89838 7.96992H6.13594Z" fill="#AAC2D6"/>
<path d="M6.66797 14.4662L6.65215 14.4674L7.51875 25.3828H7.51933H19.5369L20.4041 14.4662H6.66797Z" fill="#FFE67D"/>
<path d="M23.724 13.0857C24.5788 13.2243 25.3563 13.6625 25.9175 14.322C26.4787 14.9815 26.7868 15.8192 26.7867 16.6852V18.5098C27.4041 18.9927 27.9192 19.5937 28.3018 20.2778C28.6845 20.9619 28.9271 21.7153 29.0154 22.4942C29.1038 23.273 29.0362 24.0616 28.8166 24.8141C28.5969 25.5665 28.2296 26.2677 27.7361 26.8766C27.2426 27.4856 26.6328 27.9902 25.9422 28.361C25.2516 28.7318 24.4941 28.9613 23.7138 29.0362C22.9336 29.1112 22.1462 29.0299 21.3977 28.7973C20.6492 28.5647 19.9545 28.1854 19.3541 27.6814L19.5369 25.3828L20.4041 14.4662L20.4211 14.2553C20.8293 13.7989 21.3458 13.4525 21.923 13.2481C22.5002 13.0438 23.1196 12.9879 23.724 13.0857Z" fill="#D8AD61"/>
<path d="M25.8873 11.7762L26.5008 12.8801H25.6436C25.4033 12.8801 25.1671 12.8183 24.9576 12.7007C24.748 12.5831 24.5722 12.4137 24.4471 12.2086L23.727 11.0309H24.6211C24.8794 11.0309 25.1331 11.1 25.3557 11.231C25.5784 11.3621 25.7619 11.5503 25.8873 11.7762Z" fill="#8DC63F"/>
<path d="M23.724 9.90585V13.0857C23.301 13.0175 22.8693 13.0238 22.4484 13.1045L22.4391 13.0682V9.90585H23.724Z" fill="#8E7E5D"/>
<path d="M23.5195 1.50176C23.5665 1.61312 23.5909 1.73264 23.5916 1.85348C23.5922 1.97431 23.569 2.09409 23.5233 2.20595C23.4776 2.3178 23.4103 2.41954 23.3251 2.50532C23.24 2.59111 23.1388 2.65925 23.0273 2.70586L18.1377 4.75781C17.9388 4.84126 17.7629 4.97125 17.6248 5.13684C17.4866 5.30243 17.3902 5.49878 17.3438 5.70938L16.8451 7.96992H15.1107L15.9785 4.27148C16.0271 4.06436 16.1241 3.87169 16.2615 3.70925C16.3989 3.54681 16.5728 3.41922 16.769 3.33691L22.3154 1.00957C22.4268 0.962729 22.5463 0.938305 22.6671 0.937695C22.7879 0.937085 22.9077 0.9603 23.0195 1.00601C23.1314 1.05173 23.2331 1.11904 23.3189 1.20411C23.4047 1.28917 23.4729 1.39032 23.5195 1.50176Z" fill="#E87187"/>
<path d="M7.51933 25.3828L7.71035 27.791C7.73773 28.1372 7.89462 28.4604 8.14973 28.6961C8.40484 28.9318 8.73941 29.0626 9.08672 29.0625H17.9695C18.3167 29.0625 18.6512 28.9316 18.9062 28.6959C19.1612 28.4603 19.318 28.1371 19.3453 27.791L19.5369 25.3828H7.51933Z" fill="#C4AB43"/>
<path d="M16.8451 7.96992L15.4119 14.4662H13.5867L15.1107 7.96992H16.8451Z" fill="#AD5E73"/>
<path d="M12.5051 14.4662L12.624 14.6725L10.3775 15.9697L9.50919 14.4662H12.5051Z" fill="#FFE36C"/>
<path d="M12.5051 14.4662H9.50918L9.08028 13.7232L11.3268 12.426L12.5051 14.4662Z" fill="#EBF6FF"/>
<path d="M11.3936 7.96992H6.13594L5.36836 13.1613C4.38349 13.0077 3.46319 12.5754 2.71621 11.9154C1.96923 11.2554 1.4268 10.3953 1.15303 9.4369C0.87926 8.47846 0.885589 7.46167 1.17127 6.50671C1.45695 5.55175 2.01004 4.69853 2.76518 4.0479C3.52032 3.39726 4.44593 2.9764 5.43264 2.83505C6.41934 2.6937 7.42589 2.83778 8.33332 3.25025C9.24075 3.66272 10.0111 4.32634 10.5534 5.1627C11.0957 5.99905 11.3872 6.97316 11.3936 7.96992Z" fill="#FFE67D"/>
<path d="M8.39473 6.56835C8.49625 6.60004 8.58103 6.67072 8.63047 6.76487C8.67991 6.85902 8.68996 6.96895 8.6584 7.0705C8.63566 7.14303 8.59281 7.20762 8.53483 7.25678C8.47686 7.30593 8.40613 7.33765 8.33087 7.34823L7.22403 7.50292L7.97989 6.67968C8.03136 6.62369 8.09769 6.58349 8.17115 6.56378C8.2446 6.54407 8.32215 6.54565 8.39473 6.56835Z" fill="#5A6066"/>
<path d="M6.5748 5.7375C6.57489 5.78931 6.56494 5.84064 6.54551 5.88867L6.12597 6.92402L5.7914 5.8582C5.77404 5.80308 5.76881 5.74485 5.77605 5.68751C5.78329 5.63017 5.80285 5.57508 5.83337 5.526C5.8639 5.47692 5.90467 5.43503 5.9529 5.40318C6.00112 5.37133 6.05567 5.35028 6.11279 5.34148C6.16991 5.33268 6.22826 5.33633 6.28383 5.35219C6.33941 5.36804 6.3909 5.39572 6.43479 5.43334C6.47867 5.47095 6.5139 5.5176 6.53806 5.5701C6.56223 5.6226 6.57476 5.6797 6.5748 5.7375Z" fill="#5A6066"/>
<path d="M4.38867 6.70489L5.07597 7.58614L3.98496 7.34239C3.89596 7.32267 3.81635 7.2732 3.75926 7.20213C3.70218 7.13107 3.67103 7.04266 3.67096 6.95151C3.67089 6.86036 3.70191 6.77191 3.75889 6.70076C3.81587 6.62961 3.8954 6.58001 3.98437 6.56016C4.01342 6.55367 4.04308 6.55033 4.07285 6.5502C4.13378 6.5503 4.19389 6.56429 4.24861 6.59109C4.30333 6.61789 4.35123 6.65681 4.38867 6.70489Z" fill="#5A6066"/>
<path d="M5.07598 8.74277L4.38868 9.6246C4.35121 9.67279 4.30323 9.71178 4.24839 9.73859C4.19355 9.7654 4.13331 9.77932 4.07227 9.77929C4.0427 9.77916 4.01323 9.77582 3.98438 9.76933C3.89543 9.74937 3.81593 9.6997 3.75899 9.62851C3.70205 9.55732 3.67106 9.46885 3.67113 9.37769C3.6712 9.28653 3.70232 9.19811 3.75937 9.127C3.81641 9.0559 3.89598 9.00635 3.98496 8.98652L5.07598 8.74277Z" fill="#5A6066"/>
<path d="M11.3936 7.96992C11.3941 7.98106 11.3941 7.9916 11.3941 8.00274C11.3941 9.07589 11.0635 10.123 10.4473 11.0016C9.831 11.8801 8.95903 12.5475 7.95 12.9129L6.13594 7.96992H11.3936Z" fill="#DBC671"/>
<path d="M8.6584 9.2584C8.68543 9.34542 8.68204 9.43905 8.64879 9.52388C8.61554 9.60872 8.55441 9.67971 8.47546 9.72519C8.3965 9.77067 8.30442 9.78793 8.21435 9.77412C8.12428 9.76031 8.0416 9.71627 7.97989 9.64922L7.22403 8.82657L8.33086 8.98067C8.40613 8.99126 8.47686 9.02297 8.53483 9.07213C8.59281 9.12129 8.63566 9.18588 8.6584 9.2584Z" fill="#474C51"/>
<path d="M13.2342 18.5433L15.756 17.9388L16.3605 20.4606L13.8387 21.0651L13.2342 18.5433Z" fill="#FFF5CA"/>
<path d="M2.71172 8.00273C2.71181 6.77065 3.14762 5.57829 3.94206 4.63654C4.73651 3.69479 5.83841 3.06433 7.05287 2.85668C5.68639 2.6333 4.28714 2.9619 3.16294 3.7702C2.03874 4.57849 1.28167 5.80027 1.05829 7.16675C0.834914 8.53323 1.16352 9.93248 1.97181 11.0567C2.7801 12.1809 4.00188 12.9379 5.36836 13.1613L5.45192 12.5964C4.62318 12.1492 3.9309 11.4861 3.44848 10.6774C2.96605 9.86863 2.71147 8.94442 2.71172 8.00273Z" fill="#D3BD62"/>
<path d="M8.40996 14.4674L8.40984 14.4662H6.66797L6.65215 14.4674L7.51875 25.3828H7.51933H9.27656L8.40996 14.4674Z" fill="#CCB864"/>
<path d="M9.46816 27.791L9.27715 25.3828H7.51933L7.71035 27.791C7.73773 28.1372 7.89462 28.4604 8.14973 28.6961C8.40484 28.9318 8.73941 29.0626 9.08672 29.0625H10.8445C10.4972 29.0626 10.1626 28.9318 9.90754 28.6961C9.65243 28.4604 9.49554 28.1372 9.46816 27.791Z" fill="#938134"/>
<path d="M9.02514 21.3655C9.01775 21.2726 8.97375 21.1863 8.9028 21.1258C8.83186 21.0653 8.73978 21.0355 8.64683 21.0429C8.55387 21.0502 8.46766 21.0943 8.40715 21.1652C8.34664 21.2361 8.3168 21.3282 8.32418 21.4212L8.51168 23.7846C8.51867 23.8727 8.55857 23.9549 8.62343 24.0149C8.6883 24.0749 8.77337 24.1082 8.86172 24.1083C8.87103 24.1083 8.88047 24.108 8.89002 24.1072C8.9829 24.0998 9.06901 24.0557 9.12944 23.9848C9.18987 23.9139 9.21967 23.8218 9.21228 23.729L9.02514 21.3655Z" fill="#284268"/>
<path d="M8.57226 20.4625C8.58158 20.4625 8.59101 20.4621 8.6005 20.4614C8.64653 20.4577 8.69138 20.445 8.73251 20.424C8.77363 20.403 8.81022 20.3741 8.84017 20.339C8.87013 20.3039 8.89288 20.2632 8.90711 20.2193C8.92134 20.1753 8.92678 20.129 8.92312 20.083L8.89904 19.7799C8.89166 19.6869 8.84765 19.6007 8.7767 19.5402C8.70576 19.4797 8.61368 19.4498 8.52073 19.4572C8.42777 19.4646 8.34156 19.5086 8.28105 19.5795C8.22054 19.6505 8.1907 19.7426 8.19808 19.8355L8.22216 20.1387C8.22916 20.2268 8.26906 20.309 8.33394 20.369C8.39881 20.429 8.4839 20.4624 8.57226 20.4625Z" fill="#284268"/>
<path d="M5.79035 7.02956C5.81202 7.09867 5.8545 7.1594 5.912 7.20345C5.96949 7.2475 6.03919 7.27272 6.11156 7.27565H6.12591C6.19587 7.27562 6.26424 7.25472 6.32225 7.21562C6.38027 7.17652 6.42529 7.121 6.45158 7.05616L6.87134 6.02046C6.93548 5.86198 6.94375 5.68639 6.89479 5.52259C6.84584 5.35879 6.74257 5.21653 6.602 5.11924C6.46142 5.02195 6.29191 4.97541 6.12136 4.98729C5.95081 4.99918 5.78939 5.06877 5.66367 5.18462C5.55909 5.28158 5.48407 5.40614 5.44729 5.54392C5.4105 5.68171 5.41344 5.82709 5.45578 5.96327L5.79035 7.02956ZM6.14062 5.70153C6.1489 5.69393 6.15951 5.68937 6.17072 5.6886C6.18194 5.68783 6.19307 5.6909 6.20231 5.6973C6.21155 5.7037 6.21833 5.71306 6.22155 5.72382C6.22477 5.73459 6.22422 5.74613 6.22001 5.75655L6.16828 5.88434L6.12726 5.75274C6.12443 5.74382 6.12418 5.73427 6.12654 5.72521C6.12891 5.71615 6.13379 5.70794 6.14062 5.70153Z" fill="#284268"/>
<path d="M6.96503 9.06446L7.72118 9.88735C7.79201 9.96405 7.87796 10.0252 7.97362 10.0671C8.06927 10.1089 8.17255 10.1305 8.27695 10.1304C8.39492 10.1304 8.51124 10.1026 8.61649 10.0493C8.72174 9.99602 8.81297 9.9187 8.88279 9.82361C8.95262 9.72851 8.99908 9.61832 9.01843 9.50194C9.03777 9.38556 9.02945 9.26627 8.99413 9.1537C8.95133 9.01765 8.8709 8.89648 8.76215 8.8042C8.65339 8.71192 8.52075 8.6523 8.37954 8.63222L7.27271 8.47794C7.20101 8.46798 7.12799 8.48039 7.06361 8.51348C6.99923 8.54658 6.94664 8.59874 6.91301 8.66284C6.87938 8.72694 6.86636 8.79985 6.87573 8.87163C6.88509 8.94341 6.91638 9.01055 6.96533 9.06388L6.96503 9.06446ZM8.28222 9.32901C8.29337 9.33056 8.30366 9.33587 8.31139 9.34405C8.31912 9.35224 8.32383 9.36281 8.32475 9.37403C8.32566 9.38525 8.32273 9.39645 8.31642 9.40578C8.31012 9.4151 8.30082 9.422 8.29007 9.42534C8.28112 9.42812 8.27157 9.4283 8.26251 9.42588C8.25346 9.42345 8.24528 9.41851 8.23892 9.41163L8.14564 9.31003L8.28222 9.32901Z" fill="#284268"/>
<path d="M3.33814 7.1165C3.36983 7.25553 3.4402 7.38276 3.54112 7.4835C3.64205 7.58423 3.76941 7.65437 3.90849 7.6858L4.99916 7.9292C5.06984 7.94497 5.14367 7.93854 5.21056 7.91077C5.27744 7.883 5.33412 7.83525 5.37284 7.77405C5.41156 7.71284 5.43044 7.64118 5.42689 7.56884C5.42334 7.49651 5.39753 7.42703 5.353 7.36992L4.66599 6.48849C4.56085 6.35365 4.41292 6.25862 4.24656 6.21907C4.0802 6.17951 3.90534 6.19779 3.75075 6.27088C3.59616 6.34397 3.47107 6.46752 3.39608 6.62119C3.32108 6.77486 3.30065 6.94949 3.33814 7.11633V7.1165ZM4.06142 6.90293C4.07057 6.90085 4.08012 6.9014 4.08897 6.90451C4.09782 6.90762 4.10562 6.91316 4.11146 6.9205L4.19625 7.02931L4.06148 6.99926C4.05051 6.99679 4.0407 6.99067 4.03367 6.98189C4.02664 6.9731 4.02281 6.96219 4.02281 6.95094C4.02281 6.9397 4.02664 6.92878 4.03367 6.92C4.0407 6.91122 4.05051 6.9051 4.06148 6.90263L4.06142 6.90293Z" fill="#284268"/>
<path d="M3.9072 10.1121C3.96093 10.1242 4.01584 10.1302 4.07091 10.1302C4.18558 10.1302 4.29875 10.1041 4.40185 10.0539C4.50495 10.0037 4.59529 9.93072 4.66605 9.84048L5.353 8.95899C5.39751 8.90188 5.42329 8.83241 5.42683 8.76009C5.43037 8.68776 5.41149 8.61611 5.37277 8.55492C5.33405 8.49373 5.27739 8.44599 5.21051 8.41822C5.14364 8.39045 5.06983 8.38401 4.99915 8.39977L3.90855 8.64317C3.76945 8.67459 3.64208 8.74472 3.54114 8.84546C3.44021 8.9462 3.36983 9.07343 3.33814 9.21247C3.29452 9.40721 3.32994 9.6113 3.43662 9.77995C3.54331 9.94861 3.71255 10.068 3.9072 10.1121ZM4.02409 9.36698C4.02618 9.35783 4.0308 9.34946 4.03744 9.34282C4.04407 9.33619 4.05245 9.33157 4.06159 9.32948L4.19636 9.29942L4.11163 9.40823C4.10473 9.41709 4.09503 9.42333 4.08411 9.42595C4.07319 9.42856 4.06171 9.42739 4.05155 9.42262C4.04139 9.41785 4.03314 9.40977 4.02818 9.39971C4.02321 9.38964 4.02181 9.37818 4.02421 9.36722L4.02409 9.36698Z" fill="#284268"/>
<path d="M16.1063 17.8643C16.0956 17.8194 16.0761 17.7771 16.0489 17.7397C16.0218 17.7023 15.9876 17.6707 15.9482 17.6465C15.9089 17.6224 15.8651 17.6062 15.8195 17.599C15.7739 17.5917 15.7273 17.5936 15.6824 17.6043L13.1597 18.209C13.1148 18.2198 13.0724 18.2393 13.0351 18.2664C12.9977 18.2935 12.9661 18.3277 12.9419 18.3671C12.9178 18.4064 12.9016 18.4502 12.8944 18.4957C12.8871 18.5413 12.8889 18.5879 12.8997 18.6328L13.5044 21.1557C13.5261 21.2464 13.583 21.3247 13.6625 21.3734C13.7419 21.4222 13.8375 21.4373 13.9282 21.4156L16.4511 20.8109C16.5417 20.7892 16.6201 20.7323 16.6688 20.6529C16.7175 20.5734 16.7327 20.4778 16.711 20.3871L16.1063 17.8643ZM14.1062 20.6499L13.6655 18.8108L15.5044 18.3701L15.9453 20.2091L14.1062 20.6499Z" fill="#284268"/>
<path d="M5.31445 13.5088C5.36027 13.5159 5.40705 13.5139 5.45209 13.5028C5.49713 13.4918 5.53954 13.4719 5.57687 13.4444C5.61421 13.4169 5.64573 13.3823 5.66963 13.3425C5.69352 13.3028 5.70932 13.2587 5.71611 13.2128L6.03058 11.0855L7.35978 27.8191C7.39628 28.2526 7.59375 28.6568 7.91331 28.952C8.23288 29.2472 8.65139 29.412 9.08642 29.4141H17.9692C18.3194 29.4124 18.661 29.3053 18.9494 29.1067C19.2379 28.9081 19.4599 28.6273 19.5864 28.3008C20.5455 28.9717 21.6759 29.3556 22.8452 29.4076C22.9448 29.4121 23.0444 29.4144 23.1437 29.4144C24.4304 29.4138 25.6856 29.0165 26.7384 28.2767C27.7912 27.5369 28.5904 26.4906 29.027 25.2803C29.4637 24.0699 29.5166 22.7544 29.1786 21.5129C28.8407 20.2713 28.1282 19.1642 27.1383 18.3422V16.6851C27.137 15.7879 26.8345 14.9172 26.2793 14.2124C25.724 13.5077 24.9482 13.0099 24.0762 12.7988V12.2757L24.1472 12.3921C24.3047 12.6478 24.5248 12.859 24.7867 13.0059C25.0486 13.1528 25.3436 13.2304 25.6438 13.2314H26.5008C26.562 13.2314 26.6222 13.2154 26.6753 13.185C26.7285 13.1546 26.7728 13.1109 26.8038 13.0581C26.8348 13.0054 26.8516 12.9454 26.8523 12.8842C26.8531 12.823 26.8379 12.7627 26.8082 12.7092L26.195 11.6053C26.039 11.3247 25.8108 11.091 25.5342 10.9282C25.2575 10.7654 24.9424 10.6796 24.6214 10.6795H24.0762V9.90604C24.0762 9.8128 24.0391 9.72338 23.9732 9.65744C23.9073 9.59151 23.8178 9.55447 23.7246 9.55447H22.4391C22.3458 9.55447 22.2564 9.59151 22.1905 9.65744C22.1245 9.72338 22.0875 9.8128 22.0875 9.90604V12.8291C21.641 12.9514 21.2191 13.1501 20.8404 13.4163L21.2709 7.99817C21.2747 7.9498 21.2685 7.90115 21.2526 7.8553C21.2368 7.80944 21.2116 7.76737 21.1787 7.73173C21.1457 7.69608 21.1058 7.66764 21.0613 7.64819C21.0169 7.62874 20.9689 7.6187 20.9204 7.61871H17.2824L17.6867 5.78549C17.7212 5.62983 17.7924 5.48471 17.8946 5.36229C17.9967 5.23988 18.1267 5.14375 18.2737 5.08195L23.1633 3.03029C23.3179 2.96608 23.4582 2.87199 23.5763 2.75343C23.6944 2.63487 23.7879 2.49416 23.8515 2.33938C23.9151 2.18459 23.9475 2.01878 23.9469 1.85144C23.9463 1.68411 23.9126 1.51854 23.8479 1.36423C23.7831 1.20992 23.6886 1.06991 23.5696 0.952228C23.4506 0.834543 23.3096 0.7415 23.1546 0.678432C22.9996 0.615364 22.8337 0.583512 22.6664 0.584703C22.499 0.585894 22.3336 0.620105 22.1795 0.685373L16.6327 3.0126C16.3856 3.11673 16.1665 3.27773 15.9933 3.48251C15.8201 3.68728 15.6977 3.93004 15.6361 4.19104L14.8321 7.61877H11.7325C11.6599 6.57252 11.2935 5.568 10.6754 4.72074C10.0573 3.87347 9.21261 3.21787 8.23848 2.82934C7.26434 2.44081 6.20032 2.33512 5.16879 2.52444C4.13725 2.71375 3.1801 3.19038 2.40742 3.8995C1.63473 4.60862 1.07788 5.52144 0.800927 6.53297C0.52397 7.5445 0.538148 8.61366 0.84183 9.61749C1.14551 10.6213 1.72636 11.5191 2.51758 12.2074C3.3088 12.8958 4.27826 13.3469 5.31445 13.5088ZM24.6211 11.3825C24.8167 11.3826 25.0087 11.4349 25.1773 11.5341C25.3459 11.6333 25.4849 11.7758 25.58 11.9467L25.9031 12.5283H25.6435C25.4637 12.5277 25.2869 12.4812 25.1301 12.3932C24.9732 12.3052 24.8414 12.1786 24.7471 12.0254L24.3541 11.3825H24.6211ZM18.995 27.7634C18.9734 28.021 18.856 28.261 18.6662 28.4364C18.4764 28.6118 18.2277 28.7097 17.9693 28.7109H9.08648C8.8281 28.7097 8.57956 28.6117 8.38978 28.4363C8.20001 28.261 8.08275 28.021 8.06109 27.7635L7.8999 25.7344H19.1562L18.995 27.7634ZM19.2118 25.0313H7.8437L7.0323 14.8177H9.3062L10.0728 16.1456C10.0959 16.1856 10.1266 16.2207 10.1633 16.2488C10.1999 16.277 10.2417 16.2976 10.2864 16.3096C10.331 16.3216 10.3775 16.3246 10.4233 16.3186C10.4691 16.3126 10.5133 16.2976 10.5533 16.2745L12.8001 14.9773C12.8634 14.9404 12.9135 14.8847 12.9435 14.8178H20.0235L19.2118 25.0313ZM9.71214 14.1145L9.56044 13.8517L11.1982 12.9062L11.8959 14.1145H9.71214ZM11.6698 14.8177L10.5059 15.4896L10.1179 14.8177H11.6698ZM22.7903 10.2574H23.3727V12.6944C23.2957 12.6899 23.2182 12.6871 23.1401 12.6871C23.0229 12.6871 22.9063 12.6936 22.7903 12.7038V10.2574ZM23.1401 13.3903C24.0137 13.3913 24.8511 13.7388 25.4688 14.3565C26.0864 14.9741 26.4339 15.8116 26.435 16.6851V18.5098C26.435 18.563 26.4471 18.6156 26.4703 18.6635C26.4936 18.7113 26.5275 18.7533 26.5693 18.7862C27.1431 19.236 27.6226 19.7944 27.9806 20.4295C28.3386 21.0646 28.5679 21.764 28.6556 22.4877C28.7433 23.2115 28.6876 23.9454 28.4916 24.6476C28.2956 25.3498 27.9633 26.0066 27.5135 26.5803C27.0637 27.1541 26.5053 27.6336 25.8702 27.9916C25.2351 28.3496 24.5357 28.5789 23.812 28.6666C23.0882 28.7543 22.3543 28.6985 21.6521 28.5026C20.9499 28.3066 20.2931 27.9742 19.7194 27.5245L20.7615 14.4067C21.069 14.0858 21.4383 13.8303 21.847 13.6557C22.2558 13.481 22.6956 13.3907 23.1401 13.3903ZM20.5395 8.3219L20.0793 14.1148H15.8496L17.1275 8.3219H20.5395ZM16.3208 4.35188C16.3569 4.19891 16.4286 4.05663 16.5301 3.93661C16.6316 3.81659 16.76 3.72222 16.9049 3.66117L22.4517 1.33383C22.5207 1.30405 22.5949 1.28825 22.67 1.28732C22.7451 1.2864 22.8197 1.30038 22.8894 1.32846C22.9591 1.35653 23.0225 1.39814 23.076 1.45088C23.1295 1.50363 23.172 1.56645 23.2011 1.63573C23.2301 1.705 23.2452 1.77935 23.2453 1.85448C23.2455 1.92961 23.2307 2.00402 23.202 2.07342C23.1732 2.14281 23.1309 2.20581 23.0776 2.25877C23.0243 2.31173 22.9611 2.3536 22.8915 2.38195L18.0017 4.43338C17.7509 4.53881 17.5291 4.70285 17.3548 4.91173C17.1806 5.12061 17.0589 5.36824 17.0001 5.63385L16.5623 7.61854H15.5545L16.3208 4.35188ZM15.3895 8.3219H16.4073L15.1294 14.1148H14.0304L15.3895 8.3219ZM11.7356 8.3219H14.6672L13.3083 14.1148H12.7078L11.6314 12.2504C11.6083 12.2103 11.5776 12.1752 11.5409 12.1471C11.5043 12.119 11.4625 12.0983 11.4179 12.0863C11.3732 12.0744 11.3267 12.0713 11.2809 12.0773C11.2351 12.0834 11.1909 12.0984 11.1509 12.1215L8.90425 13.4186C8.86422 13.4417 8.82913 13.4724 8.80098 13.509C8.77283 13.5457 8.75218 13.5875 8.74021 13.6321C8.72824 13.6768 8.72518 13.7233 8.73121 13.7691C8.73724 13.8149 8.75224 13.8591 8.77535 13.8991L8.89992 14.1148H6.97646L6.68935 10.4981L7.62046 13.0346C7.6525 13.1219 7.71779 13.1929 7.80206 13.2321C7.88632 13.2714 7.9827 13.2756 8.07011 13.244C9.09466 12.8706 9.98758 12.2056 10.6389 11.3309C11.2902 10.4563 11.6714 9.41025 11.7355 8.32166L11.7356 8.3219ZM8.15554 12.4519L6.63925 8.32166H11.0315C10.9718 9.20621 10.6726 10.0579 10.166 10.7854C9.65933 11.5129 8.96431 12.0889 8.15536 12.4516L8.15554 12.4519ZM8.14576 7.01953L8.23898 6.91799C8.24365 6.91294 8.24931 6.90892 8.25562 6.90616C8.26192 6.90341 8.26872 6.90199 8.2756 6.90199C8.28057 6.90198 8.28551 6.90273 8.29025 6.90422C8.30097 6.90758 8.31023 6.91448 8.31651 6.9238C8.32279 6.93312 8.32571 6.94429 8.3248 6.95549C8.32388 6.96669 8.31919 6.97725 8.31148 6.98542C8.30378 6.9936 8.29352 6.99891 8.2824 7.00049L8.14576 7.01953ZM6.17402 3.13477C7.39812 3.13639 8.5768 3.59854 9.47578 4.42936C10.3748 5.26017 10.9282 6.39883 11.0262 7.61901H8.62183C8.75933 7.54804 8.87159 7.43639 8.9433 7.29927C9.015 7.16216 9.04266 7.00626 9.0225 6.85285C9.00234 6.69943 8.93534 6.55597 8.83065 6.44204C8.72595 6.3281 8.58866 6.24924 8.43749 6.21621C8.30531 6.18903 8.16831 6.19698 8.04017 6.23928C7.91202 6.28158 7.79721 6.35674 7.70718 6.45727L6.96503 7.26486C6.92204 7.31172 6.89257 7.36935 6.87974 7.43164C6.86691 7.49392 6.87122 7.55851 6.8922 7.61854H6.31476C6.18065 7.61856 6.05101 7.66678 5.94948 7.7544C5.84796 7.84203 5.78131 7.96323 5.76169 8.0959L5.07421 12.7468C3.9095 12.4769 2.88482 11.7878 2.19543 10.811C1.50604 9.8342 1.20015 8.63788 1.33603 7.45004C1.47192 6.2622 2.04008 5.16587 2.93226 4.36997C3.82443 3.57407 4.97825 3.13424 6.17384 3.1343L6.17402 3.13477Z" fill="#284268"/>
</g>
<defs>
<clipPath id="clip0_0_216">
<rect width="30" height="30" fill="white"/>
</clipPath>
</defs>
</svg>
